<?xml version="1.0" encoding="UTF-8"?><svg id="Calque_2" xmlns="http://www.w3.org/2000/svg" xmlns:xlink="http://www.w3.org/1999/xlink" viewBox="0 0 170 170"><defs><style>.cls-1{fill:none;}.cls-2{clip-path:url(#clippath);}.cls-3{fill:#f4fcee;}.cls-4{fill:#8fe658;}.cls-5{fill:#2c204e;}</style><clipPath id="clippath"><circle class="cls-1" cx="85" cy="85" r="85"/></clipPath></defs><g id="Calque_1-2"><path class="cls-3" d="m85,170c46.94,0,85-38.06,85-85S131.94,0,85,0,0,38.06,0,85s38.06,85,85,85"/><g class="cls-2"><g><path class="cls-4" d="m118.26,26.24c-.29-.48-.79-.85-1.37-1.05.14-.16.23-.35.28-.55.17-.75-.22-1.45-.96-1.71-1.56-.53-3.07.42-3.81,1.53-.77,1.16-.78,2.79-.03,4.04.65,1.09,1.82,1.74,3.06,1.74.26,0,.52-.03.78-.09.94-.21,1.83-.94,2.2-1.82.3-.71.25-1.46-.15-2.1Z"/><path class="cls-4" d="m115.43,31.49c-1.68,0-3.27-.9-4.13-2.35-.99-1.66-.97-3.82.06-5.37,1-1.5,3.07-2.77,5.25-2.02,1.25.43,1.98,1.6,1.83,2.87.36.27.66.6.88.96.6.98.69,2.16.24,3.24-.53,1.25-1.74,2.25-3.08,2.55-.34.08-.7.12-1.06.12Zm-.12-7.46c-.81,0-1.53.62-1.86,1.12-.5.76-.5,1.87,0,2.71.51.85,1.53,1.29,2.5,1.07.55-.12,1.11-.58,1.32-1.08.14-.34.12-.66-.06-.95h0c-.14-.22-.4-.42-.73-.54l-1.7-.61,1.17-1.38c.03-.11.03-.2-.14-.26-.17-.06-.34-.08-.5-.08Z"/></g><g><path class="cls-5" d="m49.75,52.81c-2.17.38-3.51,2.72-3.98,3.71-.34.72-.12,1.52.53,1.9.33.19.77.24,1.16.12.36-.11.64-.35.79-.66.34-.72.75-1.3,1.23-1.78.57-.56.9-.56,1.12-.49.88.26,1.33,1.2,1.44,2.97.16,2.72-.08,5.46-.72,8.17-.03-.03-.06-.05-.08-.08h0s-.01,0-.01,0c-.22-.2-.44-.39-.67-.57-.41-.32-.93-.43-1.39-.29-.43.13-.77.47-.92.93-.08.25-.14.5-.17.76l-.21.06.19.15c-.12,1.45.46,2.93,1.59,3.84.31.25.65.37.99.37.35,0,.7-.14.97-.41.15-.15.27-.35.33-.56.11,0,.22,0,.33-.02.16-.03.3-.09.44-.17.17.16.36.28.58.34.13.04.26.05.38.05.58,0,1.11-.37,1.34-.99,2.28-6.01,5.53-11.54,9.67-16.45,1.04-1.23,2.14-2.43,3.27-3.56.57-.57,1.16-1.13,1.75-1.68.6-.57,1.38-1.46,1.14-2.71-.12-.61-.41-1.17-.7-1.71-.14-.27-.28-.53-.39-.8-.32-.77-.61-1.61-.85-2.49,0-.02-.01-.05-.02-.08.45.32,1.02.35,1.5.07.34-.2.59-.56.68-.97.08-.37,0-.72-.2-1-.27-.36-.48-.72-.66-1.09.39-.4.71-.93.71-1.64,0-.57-.27-1.08-.75-1.42-.53-.37-1.23-.46-1.83-.24-.99.36-1.33,1.24-1.32,2.15-.57.49-.96,1.15-1.1,1.87-.32,1.61.26,3.26.73,4.58.29.82.63,1.64,1.01,2.45.05.1.11.21.18.33.09.15.19.32.23.35-.01.02-.06.07-.15.15-.38.38-.77.75-1.16,1.12-.68.65-1.37,1.32-2.03,2.02-1.01,1.07-1.99,2.2-2.93,3.36-1.91,2.37-3.63,4.85-5.12,7.39-.71,1.21-1.38,2.47-2.01,3.76.17-1.37.26-2.75.24-4.14-.02-1.72-.11-3.38-.92-4.8-.91-1.59-2.61-2.47-4.23-2.18Z"/><path class="cls-5" d="m147.42,125.48c-6.9,3.86-13.89,7.7-20.77,11.39-6.96,3.73-14.04,7.46-21.06,11.07-6.97,3.58-14.09,7.16-21.17,10.64-7.09,3.49-14.31,6.95-21.45,10.3-7.13,3.35-14.38,6.67-21.53,9.87l-2.68,1.2c-.32.14-.55.41-.67.77-.13.4-.09.84.11,1.19.26.44.71.68,1.2.68.22,0,.45-.05.68-.15,7.25-3.23,14.51-6.53,21.57-9.83,7.18-3.35,14.41-6.8,21.49-10.26,7.09-3.46,14.22-7.03,21.2-10.6,7.05-3.6,14.15-7.31,21.1-11.03,6.94-3.71,13.94-7.53,20.81-11.35l2.56-1.43c.78-.44.85-1.28.51-1.88-.34-.6-1.13-1.01-1.92-.56Z"/><path class="cls-5" d="m179.04,65.73c-.22-.16-.49-.19-.74-.09-7.35,3.14-14.81,6.29-22.27,9.41l-.53-1.18c-.06-.13-.12-.27-.18-.4,0,0,0-.02-.01-.02.02-.07.02-.14.01-.22-.04-.37-.32-.67-.7-.75-.36-.07-.71.08-.88.4-.17.31-.13.65.12,1.02.2.29.34.62.5.96l.06.14c.09.2.18.41.27.61-2.81,1.17-5.62,2.34-8.43,3.51l-.44-1.11c-.15-.39-.58-.57-.98-.41-.37.15-.54.53-.39.9l.46,1.17c-2.22.92-4.46,1.84-6.7,2.76-.13-.31-.25-.63-.38-.95-.16-.38-.6-.56-.98-.41-.37.15-.53.54-.38.9h0c.13.33.26.67.39,1-2.94,1.21-5.88,2.41-8.83,3.61-.41-1.47-.82-2.94-1.22-4.38-.11-.39-.5-.61-.89-.5-.39.11-.62.5-.51.89.42,1.52.84,3.04,1.26,4.55-3.46,1.41-6.92,2.81-10.38,4.2-.5-1.78-1.01-3.56-1.51-5.34l62.87-24.75c.86-.34,1.09-1.26.82-1.96-.28-.71-.96-1.01-1.67-.73l-117.55,46.28c.11-.45.23-.89.35-1.31.15-.53.31-1.05.47-1.57.61-2.01,1.24-4.09,1.45-6.26.1-1.07.14-2.26-.15-3.31.16.06.33.1.5.1.43,0,.87-.19,1.17-.66,3.16-4.99,6.71-9.76,10.56-14.16,1.94-2.22,4-4.39,6.1-6.45.79-.77,1.54-1.49,2.28-2.17-.19.59-.26,1.23-.21,1.9.08,1.11.5,3.73,2.57,4.02.16.02.31.03.46.02-.25,1.02-.66,2-1.1,2.93l-.5,1.05c-.6,1.26-1.22,2.56-1.76,3.88-.28.7-.55,1.4-.82,2.11-.93,2.43-1.9,4.95-3.35,7.15-1,1.51-2.13,2.71-3.39,3.57-.65.44-.85,1.27-.48,1.91.19.33.54.58.93.67.11.02.21.04.31.04.26,0,.5-.07.71-.22,2.54-1.73,4.59-4.39,6.26-8.11.6-1.35,1.14-2.74,1.66-4.09l.5-1.3c.68-1.75,1.48-3.41,2.26-5.02.67-1.39,1.31-2.87,1.63-4.46.13-.04.25-.09.38-.15.67-.33,1.3-.76,1.9-1.17l.47-.32c1.7-1.13,3.28-2.33,4.7-3.55,3.2-2.76,5.64-5.8,7.26-9.03.2-.39.38-.79.57-1.19.56-1.19,1.13-2.42,1.99-3.39,2.7.65,5.52.59,8.2-.19.49-.14.84-.5.96-.98.13-.51-.03-1.08-.41-1.44-.35-.33-.83-.44-1.31-.3-.07.02-.14.03-.21.05.14-.73.24-1.47.3-2.21h.08s-.07-.07-.07-.07c.02-.25.03-.5.04-.76l2.2-12.56.15-.46-.13-.04c-.08-.64-.55-1.08-1.08-1.21-.57-.14-1.12.06-1.44.51l-.14-.04-.09.51c-.81,2.46-2.23,4.96-4.33,7.63-1.81,2.3-3.83,4.51-5.79,6.64l-.33.36c-4.07,4.43-8.57,9.02-13.85,12.51-.65.43-1.32.85-1.99,1.25-.05.03-.1.06-.15.08-.66-.68-1.63-.94-2.59-.67-.83.23-1.5.79-2.1,1.34-2.38,2.16-4.7,4.45-6.89,6.8-4.41,4.73-8.45,9.86-12.02,15.26-.45.68-.89,1.36-1.33,2.05-.08.13-.13.26-.17.39-.33-.34-.7-.61-1.02-.81-.11-.07-.23-.14-.35-.21-.32-.19-.63-.37-.84-.61-.46-.54-.5-1.46-.12-2.74.12-.39.25-.78.39-1.16.34-.98.7-1.99.75-3.1.08-1.66-.55-3.16-1.69-4.01-.38-.28-.78-.43-1.17-.57-.14-.05-.27-.1-.41-.16.21-.35.28-.77.18-1.14-.03-.12-.08-.23-.14-.33l.06-.25-.14.14c-.31-.43-.86-.65-1.47-.55-.7.12-1.22.56-1.47,1.24-.31.85-.11,1.91.47,2.58.43.5,1.01.72,1.52.92.61.23.99.4,1.21.81.47.89.13,2.05-.22,3.08l-.17.47c-.43,1.23-.88,2.5-.77,3.88.12,1.61.89,2.88,2.29,3.77.1.06.21.13.32.19.33.19.64.37.82.62.24.33.25.89.25,1.48.03,2.27-.66,4.52-1.34,6.7l-.3.99c-.39,1.28-.76,2.66-.98,4.08l-1.67.66c-1.55-1.63-2.84-3.43-3.94-5.09-1.91-2.9-3.81-6.08-5.81-9.72-1.84-3.36-3.59-6.83-5.18-10.31-.72-1.57-1.55-3.43-2.27-5.31-.67-1.73-1.33-3.6-1.69-5.49-.18-.96-.11-1.78.22-2.51.34-.77.84-1.5,1.32-2.21l.19-.28c.47-.7.96-1.39,1.48-2.07l-.07.27h.1c.1.72.7,1.14,1.28,1.21.63.07,1.19-.26,1.42-.83l.12.02v-.43c.26-1.23.27-2.49.03-3.7h.01s-.02-.02-.02-.02c-.02-.1-.04-.21-.07-.31.01-4.73.21-9.48.58-14.15.26-3.2.56-6.13.94-8.94.31-2.35.75-5.06,2.02-7.39,1.23-2.24,3.13-4.02,5.52-5.13.56-.26.84-.82.72-1.43-.13-.65-.66-1.15-1.27-1.22.02-.92-.58-1.83-1.39-2.37s-1.81-.71-2.83-.49c-1.05.22-1.98.85-2.54,1.71-.45.7-.12,1.53.46,1.93.79.55,1.94.8,3.03.86-1.32.98-2.49,2.19-3.44,3.59-1.37,2.01-2.26,4.5-2.81,7.85-.51,3.15-.82,6.37-1.07,9.14-.28,3.11-.48,6.26-.6,9.37-.08,1.98-.12,3.99-.13,6.01-.05.06-.1.11-.15.17l-.12-.03.04.12c-1.13,1.32-2.2,2.69-3.17,4.1l-.25.36c-1.02,1.45-2.17,3.09-2.41,4.97-.25,2.01.45,4.09,1.07,5.93l.09.27c.7,2.08,1.54,4.06,2.27,5.73,3.26,7.43,7.09,14.59,11.39,21.3,1.18,1.83,2.53,3.8,4.15,5.63l-41.05,16.16c-.86.34-1.09,1.26-.82,1.96.21.53.65.83,1.15.83.17,0,.34-.03.52-.1l42.36-16.68c.59.53,1.21,1.05,1.87,1.52.21.15.45.22.71.22.02,0,.05,0,.07,0,.26.38.68.56,1.1.56.13,0,.26-.02.38-.05.67-.17,1.26-.83,1.04-1.71-.21-.82-.27-1.65-.25-2.48l14.08-5.54c.03.13.07.25.13.38h0c.09.17.21.31.32.45-.17.21-.22.5-.09.77,1.42,3.03,2.76,6.12,4,9.25-.8.34-1.61.67-2.42,1.01-.23-.02-.47-.03-.7-.05-.95-.05-1.84-.11-2.74-.28-1.3-.26-2.52-.65-3.64-1.17-1.33-.62-2.54-1.4-3.59-2.31-.6-.51-1.44-.5-1.97.03-.27.27-.42.68-.41,1.08.01.38.17.71.44.94h0c1.8,1.54,3.87,2.74,6.06,3.5l.22.86c-1.66.67-3.33,1.33-4.99,1.97-.88.34-1.73.66-2.58.98-.49-1.63-.99-3.29-1.51-4.96-.12-.39-.52-.6-.92-.48-.39.12-.59.51-.48.89.52,1.68,1.02,3.37,1.53,5.06-2.22.82-4.35,1.56-6.42,2.25-.76-3.03-1.51-6.09-2.23-9.14-.05-.21-.17-.37-.36-.47-.15-.08-.33-.1-.5-.06-.4.09-.64.48-.55.88.72,3.08,1.48,6.17,2.25,9.24-1.86.6-3.67,1.16-5.44,1.67l-1.19-3.79c-.08-.25-.28-.44-.53-.49-.26-.06-.54.03-.71.22-.17.19-.22.44-.15.69l1.19,3.77c-1.41.39-2.79.75-4.17,1.08-.13-.52-.27-1.03-.4-1.54-.1-.39-.49-.62-.88-.52-.4.1-.63.49-.53.88.13.51.26,1.02.39,1.52-.04.01-.09.02-.13.03-.4.09-2.74.54-5.42,1.05-.24-.99-.48-1.98-.71-2.96-.06-.25-.24-.45-.48-.52-.25-.08-.54,0-.73.17-.19.18-.27.44-.21.69.23.96.47,1.92.7,2.88-.89.17-1.79.34-2.65.5-2.76.52-5.14.97-5.56,1.06-.25.05-.45.22-.53.46-.08.25-.02.53.16.73.14.16.34.24.54.24.05,0,.1,0,.14-.02l8.26-1.51c.82,3.35,1.66,6.69,2.54,10.02-.69.31-1.41.63-2.14.95-3.35,1.49-6.78,3.01-7.19,3.2-.23.11-.38.32-.41.56-.02.26.1.52.32.67.13.09.28.14.42.14.1,0,.21-.02.3-.07l9.07-4.01c.63,2.33,1.27,4.66,1.92,6.98-.22.09-.44.19-.66.28l-2.61,1.14c-.36.16-.51.55-.35.92.13.29.4.46.69.46.1,0,.2-.02.3-.06h0c1.01-.44,2.03-.88,3.05-1.32.57,1.98,1.14,3.97,1.73,5.93.11.36.22.73.33,1.08-1.77.85-3.53,1.7-5.3,2.55l-2.39,1.16c-.36.18-.5.58-.32.94.13.27.39.42.67.42.11,0,.22-.02.33-.08,2.48-1.21,4.97-2.41,7.45-3.6.59,1.93,1.2,3.88,1.83,5.85.08.25.28.44.54.49.05.01.1.02.16.02.21,0,.42-.09.56-.24.17-.19.22-.45.14-.69-.64-2.01-1.27-4.04-1.89-6.07,1.77-.85,3.52-1.68,5.28-2.52.51,1.71,1.03,3.42,1.56,5.12.1.31.38.51.69.51.07,0,.15-.01.23-.04.38-.12.59-.51.48-.89-.55-1.77-1.09-3.55-1.62-5.33,1.35-.64,2.71-1.3,4.05-1.93.26-.12.52-.24.77-.36l2.23,7.09-25.15,11.8c-.36.17-.5.57-.33.93.13.28.39.44.67.44.11,0,.21-.02.32-.07l24.94-11.7.78,2.47c.08.25.28.43.53.49.05.01.11.02.16.02.21,0,.42-.09.56-.24.17-.19.22-.44.15-.69l-.84-2.67,4.19-1.97c.56,1.8,1.14,3.61,1.72,5.43-2.73,1.28-5.46,2.56-8.2,3.83-.36.17-.51.57-.34.93.13.28.39.44.67.44.1,0,.21-.02.31-.07h0c2.86-1.33,5.74-2.67,8.61-4.01.1-.02.19-.07.28-.13,4.79-2.24,9.58-4.49,14.35-6.75l.19.74c.05.21.18.37.37.46.1.05.21.07.32.07.06,0,.12,0,.19-.02.17-.04.33-.15.43-.29.12-.17.16-.38.11-.59l-.26-1.01c1.56-.74,3.12-1.47,4.67-2.21.9-.43,1.8-.86,2.7-1.29.04.29.09.58.12.87.05.38.37.65.75.65.03,0,.06,0,.1,0,.39-.05.65-.38.6-.77-.06-.47-.13-.94-.2-1.41.05-.02.1-.05.15-.07.49.16,1,.28,1.51.25l.31.35v-.39c.39-.08.77-.25,1.13-.58.37-.34.48-.8.4-1.23,5.84-2.79,11.67-5.59,17.49-8.41l.02.06c.09.32.37.53.69.53.07,0,.13,0,.2-.03.39-.11.62-.5.51-.89l-.09-.31c.88-.43,1.77-.86,2.66-1.28,5.44-2.64,10.87-5.3,16.3-7.97.36-.18.5-.58.32-.95-.18-.38-.62-.53-.99-.34-4,1.97-8.03,3.94-12.06,5.9.13-.17.19-.38.14-.6-.36-1.59-.72-3.18-1.09-4.76l.72-.34c.23-.11.38-.32.4-.57.02-.26-.1-.52-.32-.67-.22-.15-.49-.17-.73-.06l-.41.19c-.49-2.11-.98-4.21-1.47-6.29,2.82-1.21,5.65-2.42,8.49-3.62.07.25.15.5.22.75.98,3.33,1.96,6.66,2.96,9.99.07.25.27.44.52.5.06.01.11.02.17.02.2,0,.41-.08.55-.23.17-.18.23-.44.16-.69-1.08-3.63-2.14-7.27-3.21-10.91,2.22-.94,4.43-1.87,6.64-2.8l2.46-1.02c.25-.1.42-.32.45-.59.04-.27-.07-.53-.28-.69-.19-.15-.45-.18-.68-.08-2.98,1.24-5.99,2.5-9.01,3.78-.4-1.35-.8-2.71-1.19-4.06,3.56-1.38,7.12-2.76,10.7-4.13.79,2.49,1.59,4.98,2.4,7.45,1.05,3.19,2.16,6.47,3.29,9.75.09.25.29.43.55.48.05,0,.1.01.15.01.21,0,.42-.09.56-.25.16-.19.21-.45.13-.69-1.99-5.76-3.92-11.57-5.73-17.26,1.52-.58,3.04-1.17,4.56-1.75l2.66-1.01c.25-.09.42-.31.47-.57.04-.27-.06-.54-.26-.7-.19-.15-.45-.19-.68-.1-2.38.9-4.78,1.82-7.18,2.74-.83-2.64-1.65-5.28-2.45-7.93.93-.35,1.86-.71,2.79-1.06l2.44-.92c.39-.15.58-.57.43-.96-.14-.37-.52-.55-.9-.41-1.72.64-3.45,1.31-5.17,1.96-.51-1.71-1.02-3.41-1.52-5.11,1.35-.5,2.72-1.01,4.13-1.53,1.82-.67,3.63-1.34,5.44-2,2.45,6.66,4.66,13.43,6.55,20.21.76,2.71,1.49,5.5,2.17,8.27.08.33.37.54.69.54.06,0,.12,0,.18-.02.4-.1.64-.48.54-.88-2.38-9.69-5.33-19.31-8.75-28.62,2.29-.84,4.58-1.67,6.86-2.5l8.89,22.57c.12.29.39.47.69.47.09,0,.19-.02.29-.05.37-.15.54-.53.39-.9l-8.9-22.58c2.89-1.05,5.79-2.1,8.7-3.15.8,2.09,1.57,4.19,2.28,6.29.63,1.87,1.25,3.81,1.83,5.79.09.32.38.52.69.52.07,0,.15-.01.22-.03.39-.12.6-.51.49-.89-1.22-4.1-2.62-8.17-4.14-12.17.04-.01.07-.03.11-.04l3.14-1.13c.39-.14.58-.56.44-.96-.14-.38-.52-.56-.9-.42-1.1.39-2.21.8-3.31,1.19-.54-1.38-1.09-2.74-1.66-4.1-.19-.45-.38-.89-.58-1.34,1.39-.58,2.78-1.16,4.15-1.74,6.06-2.54,12.12-5.11,18.16-7.69.23-.1.39-.3.42-.54.03-.26-.08-.52-.3-.68Zm-56.58,47.19c-.78-2.67-1.53-5.34-2.3-8,3.5-1.36,7-2.71,10.52-4.05.8,2.64,1.61,5.29,2.45,7.93-3.56,1.36-7.11,2.74-10.67,4.12Zm-58.06,49.46c-.58-1.8-1.14-3.62-1.71-5.44l5.89-2.77c.27,1.11.53,2.23.79,3.33.05.21.18.37.36.47.1.05.22.08.33.08.06,0,.12,0,.17-.02.4-.09.64-.48.55-.88-.28-1.2-.58-2.41-.87-3.61l7.05-3.31,1.43,5.57c-2.37,1.12-4.73,2.23-7.09,3.34-2.3,1.08-4.6,2.15-6.91,3.23Zm-14.16-19.96c-1.57.67-3.14,1.35-4.7,2.02-.68-2.37-1.34-4.75-1.98-7.12,1.48-.68,2.95-1.36,4.44-2.03l2.24,7.13Zm-.91-7.73c1.59-.72,3.18-1.43,4.77-2.15.08.32.17.64.25.95.57,2.13,1.18,4.27,1.78,6.41-1.52.65-3.03,1.29-4.55,1.94l-2.25-7.15Zm58.12-33.76c-2.31.91-4.58,1.81-6.82,2.71l-1.11-4.02c2.29-.91,4.59-1.82,6.89-2.74.35,1.35.7,2.7,1.04,4.05Zm.36,1.42c.46,1.79.9,3.56,1.35,5.33-2.23.89-4.46,1.78-6.67,2.67l-1.46-5.3c2.28-.92,4.55-1.82,6.79-2.7Zm-23.01,16.86s.09,0,.13.01l.02.08.14-.07c.12,0,.23,0,.35,0h0c-.84,2.26-1.6,4.54-2.3,6.83-.55-1.8-1.12-3.6-1.73-5.38.06-.04.11-.08.17-.12,1.07-.45,2.14-.91,3.22-1.36Zm-5.44,18.73c-.5-1.76-1.04-3.68-1.37-5.63,1.28-.53,2.55-1.05,3.84-1.58-.04.17-.09.34-.14.51-.31,1.24-.6,2.48-.87,3.73l-.15.66c-.14.62-.28,1.25-.37,1.89-.31.14-.63.29-.94.43Zm-5.1-4.08c.35-.15.7-.29,1.05-.44.35,1.85.86,3.64,1.35,5.37.03.11.08.21.13.31-.35.16-.71.32-1.07.48l-1.47-5.73Zm11.37-6.25c.21-.71.41-1.42.63-2.12.59-1.86,1.25-3.73,1.95-5.6.61,1.97,1.22,3.94,1.82,5.92-1.47.6-2.93,1.2-4.41,1.8Zm-4.95-4.58c.61,1.85,1.17,3.73,1.71,5.61-.03.11-.06.22-.09.33-1.29.53-2.59,1.06-3.87,1.59-.21.09-.42.17-.63.26-.28-2.76-.02-5.52,1.51-7.95.27-.43.58-.81.91-1.16.15.44.31.88.45,1.32Zm2.79,13.05c.02-.08.04-.17.06-.25.11-.53.25-1.06.37-1.59.12.49.24.99.36,1.48-.26.12-.52.23-.79.35Zm1.81-2.36c-.21-.82-.44-1.64-.66-2.46.16-.62.32-1.25.5-1.87,1.78-.73,3.56-1.46,5.35-2.18.51,1.7,1,3.38,1.5,5.08-2.12.94-4.24,1.89-6.36,2.84-.11-.47-.21-.94-.33-1.41Zm6.11-8.45c-.77-2.55-1.55-5.09-2.35-7.63,0-.03.02-.07.03-.1.32-.12.65-.23.97-.34l.06.07.02-.09c.26-.09.52-.17.77-.25.32-.1.58-.3.75-.55,1-.42,2.01-.84,3.01-1.25l1.97,8.03c-1.74.7-3.49,1.41-5.24,2.12Zm-7.15,15.83c-.55-.61-1.11-1.24-1.21-1.97-.05-.4-.03-.83.04-1.27.51-.23,1.02-.46,1.53-.69.42,1.81.81,3.62,1.17,5.43.02.11.04.22.06.33l-1.59-1.83Zm-18.44-3.7c2.36-.99,4.73-1.98,7.1-2.97l1.48,5.77c-.2.09-.4.18-.6.27-2.13.97-4.26,1.96-6.39,2.94-.52-2.01-1.05-4.02-1.59-6.02Zm27.65-5.77s-.1.04-.14.06c-.36-1.22-.72-2.46-1.08-3.67-.14-.45-.28-.91-.42-1.36,1.72-.7,3.44-1.39,5.16-2.09l1.22,4.97c-1.58.7-3.17,1.39-4.74,2.08Zm5.97-9.6c-.47.19-.96.39-1.43.58l-1.97-8.04c1.83-.75,3.66-1.49,5.5-2.23l2.21,7.98c-1.43.57-2.87,1.14-4.3,1.71Zm1.7-11.11c-1.2.49-2.41.98-3.61,1.46-.62.25-1.23.51-1.85.76l-1.32-5.36c1.78-.73,3.55-1.45,5.31-2.16l1.47,5.3Zm-6.82,2.79c-.88.36-1.77.73-2.65,1.09-.04-.07-.08-.13-.13-.2-.18-.22-.37-.44-.56-.65h0s0,0,0,0c-1.04-1.19-2.13-2.32-3.27-3.41,1.77-.74,3.53-1.48,5.29-2.2l1.32,5.37Zm-18.18,9.2c-.21.46-.4.93-.56,1.42-.72,2.21-.87,4.73-.48,7.64-.39.16-.79.33-1.18.49l-1.98-7.74c1.4-.61,2.81-1.22,4.21-1.82Zm-3.58,10.12c-2.38.99-4.75,1.98-7.12,2.97-.68-2.52-1.38-5.03-2.09-7.53,2.41-1.06,4.82-2.11,7.23-3.15l1.98,7.72Zm-8.47,3.54c-2.14.9-4.3,1.8-6.42,2.7-.06.02-.11.05-.17.07-.69-2.46-1.37-4.92-2.03-7.39.54-.24,1.09-.49,1.63-.73,1.63-.72,3.27-1.44,4.9-2.16.71,2.5,1.4,5.01,2.08,7.51Zm-5.3,7.39c-.31-1.06-.59-2.14-.89-3.2,2.18-.93,4.37-1.85,6.58-2.78.54,2.03,1.07,4.05,1.59,6.07-2.13.99-4.25,1.97-6.37,2.96-.3-1.02-.61-2.04-.91-3.06Zm8.99.9c1.36-.63,2.72-1.25,4.07-1.88.97-.45,1.95-.89,2.92-1.33l1.84,7.17-7.03,3.3c-.59-2.42-1.19-4.84-1.81-7.26Zm8.34-3.82c1.38-.63,2.75-1.26,4.13-1.88.08,1.11.53,2.16,1.42,3.26.54.66,1.1,1.3,1.66,1.93l.82.94-.84.4-1.91-1.92-.34-.4-.09.09c-.49-.24-1.05-.16-1.49.24-.41.38-.63,1.02-.38,1.62l-.08.08.34.34c.37.43.76.85,1.16,1.26l-2.57,1.2-1.84-7.16Zm9.02,5.39l1.56,1.8c-.32-.18-.63-.37-.93-.57-.44-.28-.86-.6-1.28-.92l.65-.31Zm.83-9.85c1.85-.83,3.7-1.67,5.53-2.48.3-.13.6-.27.9-.4.3,1.03.62,2.06.91,3.09.35,1.21.71,2.46,1.06,3.7l-6.9,3.24c-.45-2.4-.97-4.78-1.52-7.14Zm7.78-3.48c1.6-.71,3.21-1.42,4.82-2.13l1.66,6.77-4.52,2.12c-.65-2.26-1.3-4.51-1.96-6.76Zm5.82-4.15l-1.21-4.92c1.91-.77,3.84-1.54,5.77-2.31l1.29,4.67c-1.96.85-3.9,1.7-5.85,2.56Zm5.54-9.18l-2.21-7.99c2.22-.9,4.42-1.78,6.64-2.66.67,2.7,1.34,5.4,1.99,8.1-2.14.85-4.28,1.7-6.42,2.55Zm12.01-15.22c-2.19.86-4.39,1.73-6.58,2.6-.44-1.77-.89-3.55-1.34-5.32.02,0,.05-.02.08-.03,2.47-.97,5.02-1.95,7.64-2.96.42,1.48.84,2.97,1.26,4.45.07.26.15.51.22.77-.42.17-.85.33-1.28.49Zm-5.22-5.34c-1.03.4-2.05.8-3.06,1.19-.35-1.35-.7-2.7-1.05-4.05,2.52-1.01,5.05-2.02,7.57-3.03.39,1.37.78,2.74,1.17,4.11-1.57.6-3.11,1.19-4.62,1.78Zm-30.39-.08c.94,2.79,1.87,5.6,2.79,8.41-1.75-1.41-3.59-2.71-5.53-3.89-.67-.41-1.36-.81-2.05-1.19l-.26-.14c-.43-.23-.83-.44-1.02-.79,0,0,0-.01-.01-.02l6.07-2.39Zm1.26,13.49l1.73-.73c.12-.05.25-.1.37-.16.38.34.75.69,1.11,1.05.28.87.56,1.75.84,2.62-.75.3-1.5.62-2.24.97l-.41-.04.06.21-.06.03c-.55.27-.85.99-.68,1.61,0,.01,0,.02.01.03-.37.16-.75.31-1.12.47-.02-.05-.04-.11-.07-.16-.64-1.11-1.55-2.05-2.62-2.74-.2-.53-.39-1.07-.59-1.6,1.23-.52,2.47-1.04,3.68-1.56Zm-9.31,4.54l.61.03c1.16.05,2.25.11,3.25.52.66.27,1.27.69,1.77,1.22-.63.53-1.18,1.17-1.69,1.86-1.94.83-3.88,1.67-5.83,2.5l-1.39-5.42c.69-.28,1.39-.56,2.07-.84.4.05.79.1,1.2.13Zm-17.88,24.57c.32-.14.64-.27.96-.41.6,2.11,1.21,4.21,1.83,6.3-1.38.64-2.77,1.29-4.13,1.93-.06.03-.12.06-.18.08l-2.01-6.4c1.18-.5,2.36-1.01,3.54-1.52Zm10.86,3.74c.23.89.46,1.77.69,2.66.38,1.53.76,3.07,1.13,4.61l-5.99,2.81c-.74-2.38-1.45-4.76-2.15-7.14,2.1-.98,4.21-1.96,6.32-2.94Zm35.14-8.37l-1.65-6.73c1.96-.86,3.92-1.72,5.89-2.58l1.79,6.48-6.03,2.83Zm3.92-15.93c2.13-.85,4.25-1.69,6.38-2.53.36,1.5.71,2.99,1.07,4.48-2.05.88-4.11,1.78-6.17,2.67l-1.28-4.63Zm15.03-7.49c-2.53.99-5.09,2-7.64,3-.65-2.69-1.32-5.39-1.99-8.11,1.46-.58,2.92-1.17,4.37-1.74,1.17-.46,2.36-.92,3.54-1.38.77,2.67,1.55,5.33,2.32,7.99-.2.08-.4.15-.6.23Zm-3.17-18.54c-.22-.79-.44-1.58-.67-2.36,3.47-1.4,6.94-2.8,10.39-4.2.42,1.47.84,2.93,1.26,4.39-3.66,1.36-7.14,2.68-10.47,3.95-.17-.59-.34-1.18-.51-1.77Zm-4.31-2.46c-1.88.75-3.77,1.5-5.65,2.25-.39-1.48-.77-2.97-1.16-4.45-.05-.21-.19-.37-.38-.46-.16-.08-.34-.09-.51-.05-.17.05-.32.15-.42.29-.12.17-.15.38-.1.59.41,1.54.81,3.07,1.21,4.61-2.3.92-4.6,1.84-6.91,2.75l-.19-.69c-.11-.39-.5-.61-.89-.5-.39.11-.62.5-.51.89l.23.85c-1.05.42-2.11.84-3.16,1.26-.38.15-.57.59-.41.98.11.28.36.44.64.44.09,0,.18-.02.27-.05,1.02-.4,2.04-.81,3.06-1.21l1.11,4.02c-1.78.72-3.53,1.43-5.27,2.15l-.48-1.97c-.05-.21-.18-.37-.36-.47-.15-.08-.34-.1-.51-.06-.4.1-.64.49-.54.88l.53,2.17c-1.87.77-3.72,1.54-5.56,2.32-.18.08-.37.15-.55.23-.04-.04-.09-.08-.14-.12-.03-.08-.05-.17-.08-.26-1.15-3.53-2.31-7.05-3.47-10.48l30.57-12.04c.5,1.79,1.01,3.57,1.52,5.35-.63.25-1.26.51-1.89.76Zm-37.42,12.43c.24.13.48.25.7.38,1.2.7,2.39,1.45,3.53,2.24,1.3.91,2.57,1.89,3.8,2.94-.45.19-.9.38-1.35.57-1.25.53-2.51,1.06-3.77,1.59-1.07-2.69-2.22-5.37-3.43-8.01.18.1.35.19.52.28Zm2.15,9.79c-.08-.02-.16-.05-.23-.07.06-.03.12-.05.18-.08.02.05.04.1.06.15Zm-7.57,8.97c-2.43,1.05-4.85,2.11-7.27,3.17-.27-.93-.52-1.87-.79-2.79-.28-.95-.57-1.93-.86-2.9,2.51-.94,5.02-1.93,7.52-2.93l1.4,5.45Zm-8.61,3.76c-.88.39-1.78.78-2.66,1.17-1.28.57-2.56,1.15-3.84,1.72-.52-1.98-1.06-3.96-1.56-5.94-.04-.15-.07-.3-.11-.45,2.11-.7,4.27-1.46,6.49-2.27.57,1.92,1.13,3.85,1.68,5.77Zm-7.86,3.49c-1.61.72-3.22,1.44-4.83,2.17l-2.23-7.07c1.75-.5,3.54-1.05,5.36-1.64.56,2.19,1.12,4.37,1.7,6.54Zm-6.17,2.78c-1.47.66-2.92,1.33-4.38,2-.31-1.16-.63-2.32-.94-3.48-.41-1.56-.81-3.12-1.21-4.69,1.39-.34,2.8-.71,4.24-1.11l2.29,7.28Zm-5.73,2.61c-.71.32-1.42.64-2.12.97-.24.11-1.5.67-3.18,1.42-.5-1.88-1-3.77-1.47-5.65-.34-1.34-.67-2.69-1-4.03l2.28-.42h.01c1.08-.23,2.17-.47,3.27-.73.72,2.81,1.46,5.63,2.22,8.44Zm-3.85,3.37h0c1.4-.65,2.82-1.3,4.23-1.94.65,2.37,1.3,4.73,1.97,7.08-1.79.77-3.58,1.55-5.35,2.32-.66-2.33-1.31-4.66-1.93-6.98l1.08-.48Zm6.61,6.55c.55,1.91,1.1,3.83,1.67,5.72.1.34.21.69.31,1.03-1.76.84-3.52,1.68-5.29,2.53-.7-2.31-1.38-4.64-2.05-6.96,1.78-.78,3.56-1.55,5.36-2.33Zm1.34-.58c1.58-.68,3.16-1.35,4.74-2.03l2.03,6.45c-1.6.75-3.2,1.52-4.81,2.28-.67-2.23-1.32-4.47-1.96-6.7Zm12.83,3.18c.37,1.26.74,2.54,1.12,3.79.33,1.1.68,2.23,1.03,3.35l-4.2,1.97-2.23-7.1c1.42-.67,2.85-1.34,4.28-2.01Zm19.54.58l3.34-1.57c.08.07.16.15.24.23l2.98,2.99c.56.56,1.29.49,1.79.14.17.08.36.16.53.24-2.48,1.18-4.97,2.36-7.46,3.54l-1.43-5.56Zm9.47-4.44l7-3.28c.51,1.78,1.01,3.59,1.52,5.4-1.57.75-3.14,1.51-4.72,2.26l-3.79-4.38Zm9.84,1.48c-.5-1.79-1.01-3.59-1.52-5.38l4.47-2.1.87,3.53c.08.33.37.54.69.54.06,0,.12,0,.18-.02.4-.1.64-.49.54-.88l-.93-3.8,6.07-2.85,1.45,5.25c-3.02,1.46-6.04,2.93-9.04,4.37-.92.44-1.85.89-2.78,1.33Zm11.31-13.01l-1.78-6.44c1.33-.58,2.67-1.16,4-1.73.7-.3,1.42-.6,2.12-.91.17.71.34,1.43.51,2.14.33,1.4.65,2.81.97,4.21l-5.82,2.73Zm4.4-15.12c-.03-.14-.07-.28-.1-.42,1.74-.69,3.48-1.38,5.22-2.06,1.02-.4,2.05-.8,3.07-1.19.4,1.37.79,2.74,1.19,4.11-2.81,1.19-5.62,2.39-8.42,3.59-.32-1.35-.64-2.69-.96-4.02Zm6.43-15.01c-.5-1.74-1-3.47-1.5-5.21,3.34-1.27,6.83-2.59,10.48-3.95.5,1.72,1.01,3.42,1.52,5.12-3.51,1.33-7.01,2.68-10.5,4.04Zm9.84-11.4c-.4-1.37-.78-2.73-1.17-4.1,2.98-1.21,5.97-2.44,8.96-3.67.61,1.53,1.22,3.06,1.8,4.6-.76.28-1.52.55-2.28.83-2.49.91-4.88,1.8-7.21,2.66-.03-.11-.07-.23-.1-.34Zm9.15-8.32c2.23-.92,4.46-1.84,6.69-2.76l1.94,4.93c-2.28.83-4.56,1.66-6.84,2.49-.58-1.55-1.18-3.11-1.8-4.66Zm8.04-3.32c2.83-1.17,5.66-2.35,8.48-3.53.44,1.01.87,2.02,1.28,3.03.32.77.61,1.57.92,2.35-2.88,1.04-5.79,2.09-8.71,3.15l-1.97-4.99Zm-59.87-8.24c.06-.42.1-.89.1-1.41.01-.87-.08-1.76-.3-2.64l.04-.02c1.24-.71,2.48-1.51,3.7-2.38,4.57-3.25,8.53-7.17,11.88-10.75-.17.22-.33.46-.49.71-.53.83-.94,1.71-1.35,2.57l-.21.44c-1.73,3.66-4.46,7-8.12,9.96-.9.72-1.87,1.44-2.98,2.19-.52.35-1.05.7-1.59,1.03l-.27.16c-.1.06-.2.12-.29.18-.04-.02-.08-.02-.12-.04Zm23-23.32c-.76.23-1.48.56-2.16.98-.44.28-.68.72-.66,1.22.02.53.33,1.03.79,1.27.42.22.9.2,1.33-.07.04-.03.08-.05.12-.08l-.29,1.68c-1.29.04-2.58-.11-3.82-.45-.4-.11-1.01-.27-1.63.22l.04-.04c1.86-2.03,3.79-4.12,5.56-6.3.46-.57.9-1.12,1.3-1.66l-.56,3.22Zm.85,91.39l-1.45-5.24,5.76-2.7c.34,1.49.69,2.98,1.03,4.47.08.33.35.54.68.55-2.01.98-4.01,1.95-6.02,2.92Z"/></g></g></g></svg>