<?xml version="1.0" encoding="UTF-8"?><svg id="Calque_2" xmlns="http://www.w3.org/2000/svg" xmlns:xlink="http://www.w3.org/1999/xlink" viewBox="0 0 170 170"><defs><style>.cls-1{fill:none;}.cls-2{clip-path:url(#clippath);}.cls-3{fill:#fff;}.cls-4{fill:#8fe658;}.cls-5{fill:#2c204e;}</style><clipPath id="clippath"><path class="cls-1" d="m85,170c46.94,0,85-38.06,85-85S131.94,0,85,0,0,38.06,0,85s38.06,85,85,85"/></clipPath></defs><g id="Calque_1-2"><path class="cls-3" d="m85,170c46.94,0,85-38.06,85-85S131.94,0,85,0,0,38.06,0,85s38.06,85,85,85"/><g class="cls-2"><g><g><path class="cls-5" d="m67.96,97.8s0,0,0,0c0,0,0,.02,0,.02,0,0,0,.01,0,.01,0-.01.01-.03.02-.05,0,0,0,0,0,0Z"/><polygon class="cls-5" points="132.44 76.55 132.44 76.55 132.44 76.55 132.44 76.55"/><path class="cls-5" d="m132.42,74.92c.03.28.06.56.07.84,0,.12,0,.24,0,.36,0,.05-.05.49.01.12,0,.04-.02.16-.04.24,0,.01-.01.02-.03.05,0,0,0,0,0,.01,0-.01.02-.02.03-.03,0,0,0,0,0,0,0,0-.02.02-.03.03-.06.13-.05.07,0,0-.04.05-.08.1-.11.13-.05.05-.11.1-.16.15-.15.1-.3.2-.46.29-.17.1-.35.19-.53.27-.01,0-.04.02-.07.03-.04.01-.2.08-.23.09-.66.25-1.34.45-2.02.61-.25.06-.51.11-.76.15-.13.02-.26.04-.39.06.05,0-.29.04-.29.04-.57.06-1.14.1-1.71.13-.78.04-1.54.66-1.5,1.5.03.78.66,1.54,1.5,1.5,2.24-.12,4.44-.45,6.51-1.33.88-.37,1.79-.84,2.41-1.58.89-1.06.95-2.35.79-3.68-.09-.78-.62-1.54-1.5-1.5-.73.03-1.6.67-1.5,1.5Zm.07,1.58s0,0,0,0c0,0,.01-.02.02-.02,0,0-.02.02-.02.02Z"/><path class="cls-5" d="m159.69,147.4c-8.42-10.68-17.21-21.05-26-31.44-.05-.06-.1-.1-.16-.15.17-3.69-.07-7.4-.68-11.12-.58-3.55-.88-7-.39-10.58.47-3.44,1.43-6.8,2.33-10.14.5-1.87-2.39-2.66-2.89-.8-.9,3.35-1.83,6.7-2.33,10.14-.5,3.46-.44,6.82.08,10.27.53,3.48,1.07,6.89,1.02,10.43-.05,3.46-.53,6.88-1.39,10.23-.16.62.06,1.13.44,1.45-.64.13-1.24.28-1.92.28-.36,0-.71-.04-1.06-.1.17-.34.22-.74.17-1.15-.33-2.43-.67-4.87-1-7.3.03-.13.05-.26.05-.4-.02-.13-.04-.27-.05-.4-.04-.13-.09-.25-.16-.37-.4-2.95-.81-5.9-1.21-8.85-.77-5.61-1.6-11.21-1.99-16.86-.13-1.92-3.13-1.93-3,0,.08,1.16.19,2.32.3,3.48-.04.04-.08.08-.11.13l-3.81,5.56c-.6.87-1.39,1.74-1.27,2.87.1,1.05.91,1.97,1.4,2.88,1.03,1.89,1.6,3.85,2.34,5.86.7,1.9,1.95,3.55,2.58,5.47,0,0,0,.02.01.02-.08.18-.19.34-.3.51-.05.06-.11.11-.17.17-.19-.01-.38,0-.55.06-4.82-3.98-8.71-9.04-11.12-14.83-.64-1.54-1.27-3.1-.52-4.72.72-1.57,1.88-3,2.89-4.38,2.19-2.98,4.61-5.79,7.06-8.56.05-.06.08-.11.12-.17.23,2.03,1.42,3.97,3.74,3.85,3.08-.16,2.94-3.71,2.3-5.8-.33-1.08-1.31-1.76-2.35-1.53.15-.32.3-.59.42-.79,2.15-3.59,5.89-5.97,8.75-8.94,1.29-1.33,2.91-3.03,3.48-4.84.27-.86.12-1.71-.22-2.53-.63-5.33-.61-10.78-2.14-15.96-.38-1.29-.86-2.54-1.44-3.75-.64-1.34-1.52-2.31-2.46-3.42-1.93-2.28-1.39-5.4-1.56-8.18-.16-2.68-.2-5.8-1.85-8.05-1.43-1.95-3.77-2.77-6.12-2.42-4.98.73-7.81,6.01-7.41,10.71.21,2.41,1.11,5.75,2.97,7.47,2.22,2.06,5.13.01,7.17-1.26,1.63-1.02.13-3.62-1.51-2.59-.81.51-1.62,1.09-2.51,1.47-.88.38-1.1.36-1.58-.46-1.02-1.75-1.66-3.89-1.58-5.93.13-3.23,3.13-7.95,6.95-6.22,2.07.94,2.18,3.72,2.34,5.67.21,2.41.04,4.88.38,7.27.32,2.22,1.43,3.77,2.87,5.4,1.55,1.75,2.28,4.31,2.81,6.54.66,2.78.95,5.63,1.19,8.48-1.49-2.15-3.01-4.29-4.32-6.55-.84-1.44-2.94-5.06-.74-6.15,1.73-.86.21-3.45-1.51-2.59-3.71,1.85-2.33,6.42-.85,9.31,1.99,3.89,4.82,7.35,7.2,11,.2.31.57.72.8,1.15.04.35.08.7.13,1.05-.2.46-.71,1.02-.96,1.35-.86,1.16-1.89,2.19-2.93,3.17-2.02,1.9-4.2,3.64-6.04,5.73-.53.6-1.02,1.24-1.48,1.91-1.41-.35-1.51-2.46-1.55-3.73-.09-2.69.04-5.4-.03-8.09-.11-4.09-.27-8.24.41-12.29.29-1.74.67-3.56,1.4-5.17.54-1.19,1.22-2.31,1.84-3.46.91-1.7-1.68-3.22-2.59-1.51-.69,1.3-1.46,2.57-2.05,3.92-.87,2-1.32,4.18-1.63,6.33-.67,4.69-.43,9.41-.33,14.13.07,3.57-1.02,11,3.11,12.61-.24.67-.42,1.36-.51,2.07-.46-.77-1.51-1.18-2.27-.32-2.71,3.09-5.38,6.21-7.8,9.54-1.08,1.49-2.25,3.01-2.94,4.73-.74,1.84-.47,3.71.22,5.52,1.01,2.66,2.31,5.19,3.85,7.57-15.8-.02-31.59-.19-47.38-.7-4.81-.16-9.62-.33-14.43-.51.91-1.36,1.83-2.71,2.72-4.08,1.3-2,2-4.04,1.89-6.37.14-.07.29-.14.43-.23.34-.21.54-.49.64-.79.22-.35.32-.77.16-1.16-.82-2.12-1.41-4.25-1.99-6.42.08-.01.17-.02.26-.04.7-.1,1.37-.28,2.03-.53.43-.16.89-.26,1.34-.38.06.1.13.21.14.23.19.32.39.64.59.95.37.57.76,1.13,1.16,1.67.9,1.22,1.86,2.4,2.9,3.51,1.97,2.11,4.21,3.96,6.61,5.56.95.81,2.11,1.25,3.28,1.65,1.18.4,2.37.81,3.59,1.09,2.41.55,5.24.67,7.38-.78,1.83-1.24,2.8-3.21,3.3-5.31.03-.12.04-.23.05-.34,0-.02,0-.04,0-.06.13-1.9-3.23-2.17-4.48-2.38-2.62-.44-5.3-.74-7.96-.71-.54,0-1.16.02-1.8.07-.12-.18-.28-.34-.46-.48-2.25-1.69-3.87-4.07-5.18-6.52-.67-1.26-1.27-2.56-1.84-3.88-.49-1.12-.93-2.3-1.73-3.23.36-.68.15-1.64-.56-2.01-3.48-1.8-7.29-2.59-11.18-2.59,0-.08,0-.16-.01-.24-.06-2.09-.12-4.17-.18-6.26,3.63.65,7.32.59,10.94-.21.29-.06.51-.21.69-.4.48.33,1.06.52,1.65.48,2.01-.15,2.51-2.51,2.18-4.13-.15-.77-.57-1.47-1.28-1.84-1-.53-2.1-.1-3.03.37-1.19.6-2.03,1.67-2.22,2.87-2.96.5-5.99.45-8.93-.17-.02,0-.04,0-.06,0-.02-3.53.03-7.27-1.19-10.52-.85-2.25-2.04-4.37-2.95-6.6-.06-.5-.2-1.01-.45-1.5-.08-.15-.17-.28-.27-.41-.02-.04-.05-.07-.07-.11-.03-.04-.05-.08-.08-.12-.04-.05-.09-.1-.14-.15-1.04-1.15-2.65-1.45-4.15-.79-1.76.78-.24,3.37,1.51,2.59.12-.05.21-.03.29.02.12.34.24.69.38,1.03.01.15.01.28,0,.35-.1.87-.62,1.71-1.02,2.46-.76,1.44-1.55,2.87-2.42,4.25-.94,1.5-2.05,2.84-3.08,4.27-1,1.4-1.01,2.88-.95,4.54.11,3.33.16,6.66.04,9.98-.77-7.24-.77-14.73.44-21.9.18-1.1.39-2.21.71-3.28.05-.18.11-.36.17-.55.04-.12.06-.17.07-.19.31-.67.72-1.32,1.12-1.95,1.02-1.62,2.51-2.47,3.79-3.82,1.43-1.52,1.69-3.2,1.69-5.21,0-3.33.15-9.73,4.54-10.12.06.05.11.1.18.14,2.46,1.56,3.98,4.42,4.05,7.32.04,1.48-.26,3.02-1.09,4.27-.61.92-2.07,1.88-3.08.94-1.41-1.32-3.53.8-2.12,2.12,1.87,1.76,4.7,1.51,6.57-.11,1.75-1.51,2.52-3.93,2.69-6.17.33-4.14-1.71-8.3-5.08-10.67-.22-.45-.64-.8-1.26-.85-4.17-.34-7.22,3.4-8,7.15-.47,2.26-.36,4.55-.41,6.84-.04,2.28-1.96,3-3.38,4.44-4.38,4.44-4.62,11.43-4.94,17.26-.3,5.36-.12,10.74.54,16.06.18,1.44,1.97,1.79,2.7,1.03-.05.97-.14,2.09-.37,3.13-.75-1.25-2.26-2.07-3.58-.98-.73.6-.86,1.52-.97,2.42-.15,1.23-.16,2.45-.07,3.68.06.76.64,1.57,1.5,1.5,1.53-.12,2.71-.71,3.62-1.57.57,1.71,1.21,3.39,1.95,5.04.51,1.14,1.06,2.27,1.65,3.37.57,1.08,1.19,2.14,1.52,3.33.17.62.43,1.08.81,1.37.11,2.45-1.08,4.91-2.14,7.03-1.2,2.38-2.53,4.74-3.27,7.32-.63,2.18-1.2,4.41-1.66,6.64-.13.08-.25.18-.37.33-7.12,8.9-14.1,17.92-20.92,27.05-.56.75-.23,1.49.38,1.87.17.56.62,1.01,1.37,1.02,18.8.14,37.59.25,56.39.34,18.8.09,37.6.15,56.4.18,10.65.02,21.3.03,31.94.03,1.06,0,1.54-.9,1.43-1.72.42-.54.56-1.35.03-2.02Zm-29.02-18.83s0,0,0,0c.02.04.02.04,0,0Zm-1.74.35c.51-.06,1.25-.12,1.74-.34.02.16.1.35.12.49.25,1.62-.09,3.29-.22,4.95-2.48.36-4.94,1.02-7.44,1.09-1.42.04-2.84-.12-4.24-.28-.75-.09-1.5-.18-2.26-.25-.54-.05-1.26.03-1.77-.19-.74-.34.33-1.07.74-1.24,1.17-.49,2.46-.59,3.64-1.08,1.96-.81,3.63-2.12,4.91-3.78,1.51.58,3.17.82,4.78.64Zm-9.13-.55s-.02-.08-.03-.11c0-.02,0-.02,0-.04,0-.23,0-.36.03-.55.16-.86.47-1.68.59-2.55.22-1.55.16-3.02.57-4.45.24-.04.47-.12.69-.24.55-.31,1.02-.75,1.4-1.24.03-.04.05-.09.08-.13.1.73.2,1.47.3,2.2-.22.27-.38.61-.36.96.04.63.02,1.25-.05,1.87-.05.35-.13.69-.21,1.03-.17.11-.32.27-.44.48-.66,1.1-1.52,2.06-2.57,2.78Zm-.29-22.68c-.4-.88-.85-1.73-1.34-2.56-.33-.55-.52-.51-.23-1.04.23-.41.54-.79.81-1.18.53-.78,1.07-1.56,1.6-2.34.38,3.06.81,6.11,1.23,9.16.22,1.6.44,3.2.66,4.79-.24-.45-.47-.9-.68-1.36-.82-1.76-1.23-3.7-2.05-5.48Zm-51.52-7.92s0,0,0,0c0,0,0,0,0-.01.01-.01.02-.03.02-.09,0,.03,0,.07-.02.1Zm3.88-.58c1.05,0,2.1.04,3.14.13.53.04,1.05.09,1.58.15.7.08.81.09,1.39.18.94.14,1.88.3,2.81.52,0,0,.02,0,.03,0-.29.8-.7,1.56-1.36,2.1-1.18.97-2.91,1.01-4.35.78-1.86-.3-3.91-.91-5.62-1.69-.65-.3-1.24-.67-1.48-1.37-.03-.07-.04-.11-.04-.15-.02.04-.02.03,0-.01,0,0,0,0,0-.01,0,0,0,0,.01-.01,0,0,0,0,0,0,0,0,0,0,0,0,0,0,0,0,0,0,0,0,0,0,0,0,0,0,.01,0,.02,0,.06-.03.27-.12.3-.15.32-.11.64-.2.97-.27.06-.01.4-.06.44-.07.19-.02.37-.04.56-.06.53-.04,1.06-.06,1.59-.06Zm-5.34-2.02c-.43.26-.8.58-1.08,1.01-.05.07-.07.15-.11.23-1.36-1.12-2.64-2.33-3.81-3.64-.96-1.07-1.84-2.2-2.64-3.38-.42-.61-.8-1.25-1.19-1.88-.09-.14-.19-.25-.29-.37.1-.53.08-1.03.18-1.49.13-.61.34-1.32.56-1.84.18-.43.4-.83.64-1.22.55.84.88,1.86,1.27,2.76.61,1.38,1.25,2.75,1.99,4.06,1.21,2.16,2.7,4.12,4.51,5.78Zm-28.29-33.56c.67-.86,1.32-1.74,1.92-2.64,1.18-1.79,2.24-3.66,3.22-5.57.22.47.44.93.64,1.4,1.26,2.85,1.5,5.65,1.6,8.76.13,3.92.22,7.84.33,11.75.01.38.31,1.96.1,2.3-.13.21-1.12.48-1.45.59-.97.33-1.97.54-2.98.67-.43.05-2.61.48-2.9.08-.44-.62-1.12-.75-1.71-.59.36-4.65.18-9.31.09-13.97-.02-1.23.39-1.83,1.13-2.78Zm.89,29.02c-1.14-2.45-2.05-4.99-2.78-7.59-.03-.09-.06-.17-.1-.25.18-.56.33-1.13.44-1.72,1.38,1.24,3.29.99,5.14.77,1.92-.23,4.09-.63,5.76-1.69.7-.45,1.07-.99,1.26-1.61,2.77,0,5.5.41,8.06,1.41-1.2,1.58-2.03,3.46-2.33,5.42-.04.28-.07.57-.09.85-.12.02-.24.04-.35.06-.25.04-.5.09-.75.17-.59.2-1.16.42-1.77.56-.27.06-.6.12-.91.15-.62-1.93-1.46-3.76-2.75-5.38-.51-.63-1.59-.53-2.12,0-.63.63-.51,1.49,0,2.12,1.38,1.73,2.01,3.93,2.55,6.04.54,2.11,1.11,4.16,1.83,6.19-.33.03-.68,0-1.02,0-.89-.04-1.77-.06-2.66.01-.88.07-1.77.19-2.65.29-.42.05-.85.09-1.27.15-.19.02-.39.05-.58.07-.09-.25-.17-.5-.28-.74-.24-.58-.51-1.15-.8-1.71-.62-1.19-1.26-2.36-1.83-3.57Zm-3.48,32.05c.48-2.87,1.21-5.81,2.08-8.59,1.57-4.97,5.31-9.24,5.34-14.55.8-.1,1.6-.2,2.4-.29,1.2-.13,2.38-.19,3.59-.13.08,0,.15,0,.23,0-.06,2.13-1.02,3.74-2.3,5.6-1.51,2.2-2.98,4.43-4.39,6.7-2.56,4.13-6.11,8.89-5.93,13.98.01.4.15.7.36.94-.51.16-1.03.29-1.53.28.09-.37.15-.74.13-1.13-.05-.98-.14-1.83.02-2.82Zm-2.31,10.12c-.03-.37.02-.77.03-1.12.02-.56.05-1.13.15-1.68.04-.24.1-.48.16-.71,1.16.47,2.5.4,3.72.09.47-.12,1.3-.6,1.75-.44.42.14.89,1,1.15,1.34,1.18,1.53,2.73,2.67,4.48,3.37-.12.03-.22.05-.31.07-1.31.35-2.63.52-3.98.54-1.3.02-2.59-.1-3.86-.39-.65-.15-1.29-.33-1.92-.55-.39-.14-.97-.28-1.37-.54Zm12.12,15.01c-9.96-.06-19.92-.12-29.88-.2,5.11-6.81,10.31-13.54,15.59-20.21-.56,1.33-.75,2.82-.8,4.28-.05,1.36-.09,2.79,1.24,3.58,1.14.68,2.54,1.1,3.82,1.41,2.68.67,5.45.75,8.17.3,2.34-.39,5.43-1.1,6.26-3.63.32-.97-.52-1.86-1.45-1.9-1.3-.06-2.54-.45-3.66-1.12-1.22-.74-1.97-1.78-2.86-2.86-.64-.77-1.42-1.3-2.32-1.48.06-.17.1-.36.09-.57-.09-2.64,1.12-4.96,2.39-7.19,1.19-2.09,2.43-4.15,3.71-6.19.04,0,.07.01.11.02,12.87.48,25.74.88,38.62,1.09-.07.17-.11.36-.11.58v33.31c0,.41.14.72.35.96-13.09-.05-26.19-.1-39.28-.17Zm56.39.25c-4.94-.01-9.88-.05-14.82-.07.22-.24.36-.56.36-.97v-33.31c0-.2-.04-.38-.1-.54,2.7.04,5.4.08,8.09.1,5.41.04,10.82.05,16.23.05.01,0,.02,0,.03,0,1.89,2.41,4.04,4.62,6.42,6.55-.51,1.81-.33,3.78-.76,5.5-.29,1.17-.67,2.3-.45,3.52.05.25.13.48.22.7-.43.13-.86.24-1.31.36-1.45.37-2.83,1.01-3.62,2.34-.75,1.28-.75,2.99.34,4.08,1.14,1.14,2.82,1.06,4.31,1.21,1.63.16,3.26.41,4.9.49,3.5.18,6.87-.95,10.34-1.24.79-.07,1.52-.63,1.5-1.5-.06-2.47.79-5.07.06-7.5-.31-1.02-.97-1.74-1.83-2.07.2-.17.35-.41.43-.73.43-1.68.76-3.37.99-5.06,7.87,9.3,15.72,18.62,23.29,28.17-18.21,0-36.42-.03-54.63-.09Z"/></g><g><path class="cls-4" d="m91.06,89.16c-.74-.38-1.57-.6-2.41-.59-.74,0-1.57.17-2.19.59-.39.26-.74.6-.96,1.02-.14.28-.2.52-.25.8-.09.03-.17.07-.25.12-.64.41-1.01,1.36-.54,2.05.92,1.35,2.46,2.34,4.08,2.63.82.15,1.71.2,2.5-.09.98-.36,1.71-1.05,2.06-2.04.61-1.74-.5-3.67-2.05-4.47Zm-1.21,2.78s.02.01.02.02c-.16-.1-.17-.11-.12-.09.03.02.07.04.1.07Zm-1.79-.25s0,0,0,0c0,0,.02,0,.02,0,0,.01,0,.02-.01.03,0-.01.01-.02.02-.04,0,0,0,0,0,0-.1.15-.13.11-.04.01Z"/><path class="cls-4" d="m89.75,96.26c-.39,0-.81-.04-1.27-.12-1.73-.31-3.34-1.35-4.32-2.79-.25-.36-.33-.82-.24-1.27.11-.53.44-1.02.89-1.31.04-.02.08-.05.12-.07.05-.26.13-.47.25-.7.22-.43.58-.83,1.08-1.16.84-.57,1.87-.65,2.4-.65h.01c.87,0,1.76.22,2.57.64h0c1.65.85,2.94,2.93,2.23,4.93-.38,1.08-1.17,1.86-2.29,2.27-.43.16-.9.24-1.43.24Zm-1.09-7.33h-.01c-.77,0-1.49.19-1.99.53-.4.27-.67.56-.83.88-.13.25-.18.46-.21.69l-.03.22-.21.07c-.07.02-.12.05-.17.08-.28.18-.49.5-.56.82-.04.18-.04.45.13.7.87,1.27,2.3,2.2,3.83,2.47.96.17,1.69.15,2.31-.08.9-.33,1.53-.96,1.84-1.82.56-1.59-.53-3.33-1.87-4.02h0c-.7-.36-1.47-.55-2.22-.55Zm1.01,3.33c-.14-.09-.46-.29-.27-.61l.19-.32.51.31-.21.3.15.1-.15-.1-.22.31Zm-1.66-.13s-.03,0-.05,0l-.24-.03-.08-.23c-.03-.09-.05-.26.13-.45l.17-.11.78-.24-.3.75-.06-.02.06.03-.2-.07.18.11c-.04.07-.17.27-.4.27Z"/></g></g></g></g></svg>