<?xml version="1.0" encoding="UTF-8"?><svg id="Calque_2" xmlns="http://www.w3.org/2000/svg" viewBox="0 0 29.73 42.66"><defs><style>.cls-1{fill:#8fe658;}</style></defs><g id="Calque_1-2"><g><path class="cls-1" d="m29.67,12.39c.17-.8.04-1.93-1.59-2.78l-.22-.11c-.19-.09-.42-.21-.49-.29-.03-.08,0-.35.02-.5l.04-.28c.11-.86.27-2.03-.59-2.89-.67-.67-1.58-.73-2.3-.78-.18-.01-.35-.02-.51-.04-.11-.01-.14-.03-.12-.03-.08-.17-.13-.34-.19-.52-.08-.24-.16-.49-.27-.71-.24-.51-.8-1.7-2.08-1.7-.32,0-.62.07-.88.12l-.17.04c-.07.02-.15.04-.25.06-.09.02-.26.07-.34.09-.04-.06-.09-.14-.12-.18-.04-.07-.08-.13-.12-.19-.29-.42-.65-.94-1.19-1.3-1.4-.93-2.83,0-3.3.31l-.21.14c-.22.15-.44.3-.62.34-.12.02-.4-.08-.54-.14-.1-.06-.19-.12-.29-.18-.29-.18-.62-.39-1.01-.52-.75-.25-1.84-.21-2.81,1.36-.05.09-.11.18-.16.29-.07.13-.2.37-.23.4-.09.02-.32-.04-.47-.07-.15-.03-.29-.06-.41-.08-1.82-.21-2.63.47-2.98,1.09-.29.52-.35,1.09-.4,1.55l-.02.22c-.01.15-.03.44-.04.48-.12.06-.3.11-.49.15-.2.05-.39.1-.58.17l-.25.09c-.28.1-.59.21-.89.38-1.18.66-.9,1.91-.74,2.57.03.13.06.25.08.37.03.16.06.31.1.47.06.28.13.55.12.77,0,.07-.18.22-.33.34l-.18.16c-.09.08-.2.16-.31.25C.8,11.75.05,12.33,0,13.22c-.04.84.5,1.47.94,1.98.1.11.19.22.27.32l-.02.06c-.09.2-.19.4-.29.6-.16.32-.33.65-.45,1.02-.3.88-.1,1.49.13,1.85.23.38.56.62.84.84.09.07.18.14.26.21.09.08.19.16.3.24.12.09.33.24.36.29.04.16.02.45,0,.71-.01.16-.02.31-.02.44,0,.61-.02,2.22,1.34,2.84.44.2.89.25,1.28.29l.21.02c.09.01.22.02.2-.01.1.22.17.49.24.77.12.48.25,1.02.6,1.51.03.05.07.09.1.13-.07.22-.14.43-.22.65l-.2.55c-.16.42-.31.84-.45,1.27-.16.5-.31,1-.46,1.5-.22.76-.46,1.55-.73,2.29-.41,1.14-.71,2.31-1,3.44l-.08.33c-.06.22-.14.45-.22.67-.26.7-.55,1.48-.3,2.37.16.57.75.98,1.29.95.85-.04,1.59-.42,2.23-.75l.24-.12c.25-.12.49-.28.74-.45.25-.16.48-.32.69-.41.11.12.26.33.33.43l.13.19c.61.79,1.2,1.47,1.82,2.06.25.24.56.36.88.36.04,0,.07,0,.11,0,.38-.03.73-.24.97-.56.53-.72.7-1.57.84-2.32.04-.23.09-.46.15-.68.3-1.22.64-2.44.99-3.65.3-1.06.59-2.19.94-3.65.02-.07.03-.14.05-.21.16.8.39,1.58.61,2.34l.16.54c.36,1.25.71,2.51,1.04,3.77l.15.56c.1.38.2.76.3,1.14.15.61.32,1.2.71,1.73.42.56,1.09.72,1.69.41.83-.45,1.45-1.13,1.89-1.68.21-.26.42-.53.62-.8l.06-.08c.05-.06.1-.15.16-.24.01-.02.02-.04.04-.06.03,0,.05.01.08.02.08.02.16.04.22.05l1.42.24c.31.05.62.11.98.22.32.1.68.21,1.08.22.81,0,1.18-.33,1.4-.61.67-.89.24-2.33,0-3.1-.23-.76-.42-1.53-.61-2.31-.23-.93-.47-1.89-.77-2.82-.3-.94-.69-1.83-1.08-2.7l-.07-.16c-.1-.24-.19-.49-.27-.74-.11-.32-.22-.65-.37-.97.03-.09.06-.17.09-.26.06-.19.12-.38.17-.57l.11-.36c.04-.11.06-.26.09-.43.02-.09.04-.22.04-.29.07-.02.15-.03.23-.04.22-.04.44-.09.59-.15l.14-.05c.37-.14.78-.29,1.15-.6,1.09-.92.65-2.32.45-2.92l-.07-.21c-.05-.14-.14-.39-.15-.43.04-.08.29-.25.42-.34.08-.05.16-.11.23-.16.5-.37,1.82-1.34,1.45-2.96-.11-.49-.35-.9-.56-1.26l-.21-.37c-.07-.12-.19-.33-.21-.36.1-.28.28-.55.48-.84.29-.43.61-.91.75-1.54Zm-4.82,8.16c.05.38.16.71.27,1.03l.12.38s0,0,0,0c-.12.04-.27.09-.39.13-.11.03-.22.06-.33.08-.28.06-.63.13-.96.33-.75.45-.95,1.31-1.1,1.94-.03.15-.07.29-.11.42-.03.11-.06.22-.09.33-.01.05-.03.11-.04.16-.02,0-.04,0-.06,0h-.36c-.89-.06-1.99-.11-2.88.79-.12.12-.26.3-.4.5-.12.17-.37.51-.52.61-.21-.07-.42-.2-.65-.33-.53-.31-1.18-.71-2.08-.54-.7.13-1.16.5-1.54.8-.21.16-.39.31-.58.41-.12-.12-.3-.42-.39-.57-.07-.11-.13-.22-.19-.3-.61-.91-1.39-1.35-2.37-1.35-.07,0-.15,0-.22,0-.52.03-.95.08-1.37.15l-.12.02c-.07.01-.18.03-.26.04-.03-.09-.07-.23-.09-.33l-.08-.3c-.11-.41-.22-.83-.42-1.25-.58-1.17-1.73-1.28-2.65-1.37-.03,0-.06,0-.1,0-.02-.14-.01-.32-.01-.48v-.45c.02-.35.02-.7-.01-1.04-.07-.67-.39-1.23-.98-1.72l-.94-.77c.08-.21.18-.4.29-.6.11-.23.23-.45.32-.68l.06-.13c.17-.39.4-.92.19-1.55-.15-.45-.44-.81-.71-1.14l-.12-.14c-.04-.05-.09-.11-.13-.16.17-.15.35-.3.52-.45l.15-.13c.34-.3.81-.71,1.04-1.33.24-.64.16-1.3.04-1.86-.04-.17-.07-.34-.11-.51-.05-.21-.1-.41-.13-.62-.01-.06-.02-.12-.04-.17.14-.04.28-.09.43-.13.42-.12.86-.24,1.29-.48,1.09-.61,1.21-1.74,1.29-2.57l.03-.28s.01-.1.02-.16c.29-.02.65.04.98.09.41.07.93.15,1.46,0,.7-.19,1.14-.7,1.41-1.07.13-.18.25-.38.36-.57.07-.12.14-.25.22-.37.1.05.2.11.31.17.17.1.33.19.5.27.37.17.73.27,1.08.36.18.05.35.1.53.15.31.1.63.07.91-.1.15-.09.27-.21.36-.35.07-.03.14-.07.21-.1.15-.08.31-.19.48-.3.2-.14.61-.41.77-.4.17.14.32.37.48.61.26.41.57.87,1.1,1.17.78.44,1.69.23,2.35.07l.19-.04c.05.1.1.2.15.3.06.15.11.3.17.45.23.66.52,1.48,1.45,1.89.5.22,1,.25,1.44.27.27.01.53.03.74.08.02.19-.05.59-.08.78-.03.15-.05.28-.06.38-.14,1.26.27,2.23,1.23,2.88.15.1.34.2.56.29.14.06.38.17.5.26-.09.27-.28.55-.47.84-.22.33-.47.7-.63,1.13-.39,1.07.16,2.04.57,2.74l.14.25c.06.11.18.32.21.33-.1.14-.31.29-.51.43l-.24.17c-.73.55-1.55,1.34-1.35,2.68Zm-7.32,9.25c1.45.32,2.39-.84,2.84-1.4l.11-.14c.12-.16.28-.36.38-.38.23-.06.58-.03.91,0,.14.01.28.02.42.03h.06c.03.09.06.18.09.27.09.26.18.52.29.78.11.26.23.52.35.78.23.5.45,1.01.64,1.53.49,1.36.86,2.81,1.21,4.21l.18.71c.06.24.13.48.2.72l.06.19c-.42-.09-.85-.17-1.26-.24l-.13-.02c-.12-.02-.26-.05-.4-.08-.6-.14-1.35-.31-2.05,0-.6.27-.99.84-1.29,1.29-.08.12-.16.24-.24.34-.08.11-.17.22-.25.32-.06-.24-.13-.48-.2-.72l-.18-.66c-.33-1.23-.69-2.44-1.04-3.66l-.06-.21c-.08-.28-.17-.56-.25-.85-.26-.86-.54-1.75-.66-2.61-.01-.09-.02-.19-.03-.29.1.03.21.07.31.09Zm3.91-26.19s0,0,0,0h0s0,0,0,0h0s0,0,0,0Zm-8.09,27.52l-.75-.08c-.28,1.15-.57,2.34-.9,3.49-.34,1.2-.67,2.4-.99,3.61-.07.25-.12.51-.17.78,0,0,0,0,0,0-.13-.17-.26-.33-.38-.48-.44-.58-1.12-1.45-2.16-1.48-.02,0-.04,0-.07,0-.77,0-1.44.43-1.97.78-.09.06-.18.12-.27.17.04-.16.08-.33.12-.51.2-.85.45-1.71.7-2.53.12-.38.23-.77.34-1.16.17-.61.32-1.22.47-1.84.16-.66.32-1.33.52-1.98l.14-.46c.13-.44.26-.87.38-1.31.25-.01.5-.05.73-.08l.51-.07c.22-.03.55-.08.66-.06.05.04.15.2.21.3l.09.15c.45.69,1.1,1.7,2.23,1.85-.02.07-.03.13-.05.2l-.13.55.73.18h0s0,0,0,0Z"/><path class="cls-1" d="m21.03,7.47c-1.83-1.53-4.02-2.41-6.16-2.49-1.13-.04-2.17.17-3.25.64-.96.42-2.08.96-3.08,1.72-1.92,1.46-3.13,4.02-3.16,6.69,0,.4.03.82.1,1.24,0,.42.03.84.09,1.25.34,2.52,1.65,4.77,3.58,6.18,1.69,1.23,3.96,1.92,6.2,1.92.28,0,.56-.01.83-.03,2.55-.2,4.87-1.48,6.36-3.51,1.38-1.88,2.04-4.54,1.82-7.29-.2-2.47-1.35-4.65-3.33-6.31Zm-10.42,1.88s.74-.41,1.01-.54c.64-.3,1.4-.62,2.17-.77.27-.05.54-.08.83-.08s.57.02.87.07c0,0,.37.06.63.14.66.18,1.33.47,1.98.86.49.3.95.64,1.35,1,0,0,.28.26.4.39.6.64,1.04,1.32,1.29,2.04.32.9.42,1.94.3,3.19-.04.36-.08.73-.14,1.07l-.13.61c-.09.36-.2.68-.34.97-.68,1.49-2,2.65-3.52,3.09-1.68.49-3.69.3-5.38-.5-1.47-.69-2.59-1.9-3.16-3.39-.81-2.12-.65-4.66.42-6.62.21-.38.46-.73.7-.99.23-.2.49-.4.75-.56Z"/></g></g></svg>