<?xml version="1.0" encoding="UTF-8"?><svg id="Calque_2" xmlns="http://www.w3.org/2000/svg" viewBox="0 0 79 91.27"><defs><style>.cls-1{fill:#8fe658;}.cls-2{fill:#2c204e;}</style></defs><g id="Calque_1-2"><g><path class="cls-2" d="M54.96,0c-.95,0-1.72,.8-1.72,1.78V9.98c0,.98,.77,1.78,1.72,1.78s1.72-.8,1.72-1.78V1.78c0-.99-.77-1.78-1.72-1.78"/><path class="cls-1" d="M15.46,55.62c-.95,0-1.72,.8-1.72,1.78s.77,1.78,1.72,1.78,1.72-.8,1.72-1.78-.77-1.78-1.72-1.78"/><path class="cls-1" d="M72.13,55.62h-8.59c-.95,0-1.72,.8-1.72,1.78s.77,1.78,1.72,1.78h5.15c1.89,0,3.43,1.6,3.43,3.57s-1.54,3.56-3.43,3.56h-8.59c-.95,0-1.72,.8-1.72,1.78s.77,1.78,1.72,1.78h5.15c1.87,0,3.44,1.55,3.44,3.57s-1.54,3.57-3.44,3.57h-8.59c-.95,0-1.72,.8-1.72,1.78s.77,1.78,1.72,1.78h5.15c1.89,0,3.43,1.6,3.43,3.57s-1.54,3.56-3.43,3.56h-18.47c-7.59,0-10.56-.8-16.46-2.4-.87-.24-1.82-.49-2.85-.77V51.7c12.43-3.07,27.48-10.57,27.48-23.89v-1.78c0-1.97,1.54-3.57,3.44-3.57s3.43,1.6,3.43,3.56h0c0,.78,.93,10.29-2.8,18.9h-5.78c-.95,0-1.72,.8-1.72,1.78s.77,1.78,1.72,1.78h22.33c1.89,0,3.43,1.6,3.43,3.56s-1.54,3.57-3.43,3.57m-51.52,30.3c0,.98-.77,1.78-1.72,1.78H3.43V48.49h15.46c.95,0,1.72,.8,1.72,1.78v35.65Zm58.39-33.87c0-3.93-3.08-7.13-6.87-7.13h-12.82c1.99-5.28,2.79-11.49,2.63-17.02-.03-1.05-.07-1.66-.12-2.05-.09-3.85-3.14-6.96-6.86-6.96s-6.87,3.2-6.87,7.13v1.78c0,11.27-13.95,17.61-24.47,20.33-.79-1.89-2.61-3.21-4.72-3.21H1.72c-.95,0-1.72,.8-1.72,1.78v42.78c0,.98,.77,1.78,1.72,1.78H18.89c2.1,0,3.9-1.31,4.71-3.17,.87,.23,1.68,.45,2.43,.65,6,1.62,9.3,2.52,17.33,2.52h18.47c3.79,0,6.87-3.2,6.87-7.13,0-1.47-.43-2.83-1.16-3.96,2.65-.96,4.6-3.59,4.6-6.73,0-1.46-.42-2.83-1.15-3.97,2.64-.97,4.58-3.59,4.58-6.73,0-1.47-.43-2.83-1.16-3.96,2.65-.96,4.6-3.6,4.6-6.73"/><path class="cls-1" d="M15.46,62.75c-.95,0-1.72,.8-1.72,1.78v14.26c0,.99,.77,1.78,1.72,1.78s1.72-.8,1.72-1.78v-14.26c0-.99-.77-1.78-1.72-1.78"/><path class="cls-2" d="M41.22,22.46h-6.87c-.95,0-1.72,.8-1.72,1.78s.77,1.78,1.72,1.78h6.87c.95,0,1.72-.8,1.72-1.78s-.77-1.78-1.72-1.78"/><path class="cls-2" d="M75.57,22.46h-6.87c-.95,0-1.72,.8-1.72,1.78s.77,1.78,1.72,1.78h6.87c.95,0,1.72-.8,1.72-1.78s-.77-1.78-1.72-1.78"/><path class="cls-2" d="M70.74,7.86c-.67-.7-1.76-.7-2.43,0l-4.86,5.04c-.67,.7-.67,1.83,0,2.52,.67,.7,1.76,.7,2.43,0l4.86-5.04c.67-.7,.67-1.82,0-2.52"/><path class="cls-2" d="M46.46,12.9l-4.86-5.04c-.67-.7-1.76-.7-2.43,0-.67,.7-.67,1.82,0,2.52l4.86,5.04c.67,.7,1.76,.7,2.43,0,.67-.7,.67-1.82,0-2.52"/></g></g></svg>