<?xml version="1.0" encoding="UTF-8"?><svg id="Calque_2" xmlns="http://www.w3.org/2000/svg" viewBox="0 0 488.1 169.84"><defs><style>.cls-1{fill:#fff;}.cls-2{fill:#8fe559;}</style></defs><g id="Calque_1-2"><path class="cls-1" d="m94.5,1.94L0,116.35v3.6h97.14v49.89h4.8v-49.89h37.42v-4.56h-37.42v-43.89h-4.8v43.89H6.48L100.26,1.94h-5.76Zm348.74,0l-94.5,114.41v3.6h97.14v49.89h4.8v-49.89h37.42v-4.56h-37.42v-43.89h-4.8v43.89h-90.66L449,1.94h-5.76Z"/><path class="cls-2" d="m240.51,169.41c-3.7,0-7.4-.24-11.06-.73-5.78-.77-11.51-2.15-17.04-4.11-3.48-1.23-8.4-3.31-12.17-7.39l-.06.05s-.02-.02-.02-.03c-.12.07-.25.14-.39.19-1.63.65-3.28-.4-4.49-1.17-1.97-1.25-3.89-2.58-5.7-3.95-3.7-2.8-7.18-5.91-10.35-9.25-3.05-3.22-5.86-6.7-8.36-10.36-.38-.55-.78-1.09-1.17-1.63-.65-.88-1.33-1.8-1.93-2.78-1.26-2.06-1.21-4.06-1.13-5.99-.07-.04-.14-.08-.2-.12-3.49-1.01-4.69-5.59-5.58-8.96-.19-.71-.35-1.35-.53-1.87-1.45-4.41-2.55-8.97-3.25-13.54-.73-4.71-1.06-9.53-.98-14.33,0-.54,0-1.08.01-1.64,0-3.77.02-7.98,2.3-11.29-2.02-3.03.15-8.09,1.53-11.29.31-.71.57-1.33.72-1.75,1.38-4.02,3.09-7.98,5.08-11.77,2.99-5.71,6.61-11.06,10.77-15.91,2.03-2.37,4.21-4.64,6.49-6.76l.64-.6c.88-.83,1.78-1.69,2.8-2.42.68-.49,1.76-1.13,2.82-1.18.14-.25.28-.49.42-.74.37-.65.75-1.28,1.24-1.86,1.13-1.35,2.73-2.09,4.14-2.74.64-.29,1.24-.57,1.75-.88,2.26-1.36,4.58-2.62,6.9-3.74,5.78-2.8,11.9-4.95,18.19-6.38.42-.1.86-.2,1.3-.31,3.69-.89,8.51-2.04,12.22.11.24-.25.51-.49.81-.7,3.74-2.64,11.25-1.56,18.8,0,.52.11.97.2,1.34.27,4.35.83,8.68,2.02,12.87,3.53.41.15.83.29,1.25.44,1.8.62,3.67,1.27,5.31,2.26,2.25,1.35,2.53,2.84,2.38,4.51.07,0,.15,0,.22,0,1.91-.02,3.89-.04,5.67.34,1.99.42,3.68,1.7,5.18,2.84.31.23.61.46.9.67,3.88,2.8,7.55,5.96,10.89,9.38,3.8,3.89,7.24,8.17,10.23,12.75,1.49,2.29,2.89,4.66,4.14,7.05.25.47.45.96.63,1.48l.1-.05c.91,1.71,1.25,4.93,1.24,8.22,3.38.85,4.15,4.49,4.68,7.01.11.52.22,1.03.34,1.51.95,3.69,1.66,7.49,2.11,11.28.48,4.09.67,8.25.54,12.36-.01.47-.02.94-.02,1.4-.02,2.75-.05,6.06-2.77,8.03,2.22,3.31.45,8.71-.51,11.61-.13.38-.24.73-.33,1.04-1.53,5-3.54,9.9-5.99,14.56-2.53,4.84-5.53,9.43-8.91,13.66-1.6,2-3.38,4.02-5.27,5.98l-.22.23c-1.33,1.38-2.29,2.31-3.74,2.64-.47,1.76-2.67,3.78-7.55,7.05-.25.17-.45.3-.57.39-3.45,2.42-7.11,4.6-10.87,6.47-3.44,1.71-7.03,3.2-10.66,4.43-.25.09-.61.22-1.02.38-4.1,1.54-8.25,2.89-10.47,1.29-.82.85-1.79,1.42-2.85,1.82-1.25.61-2.66.95-4.24.85v-.05c-1.03.07-2.05.07-3.02.07-.71,0-1.4,0-2.05.03-1.16.05-2.32.07-3.48.07Zm-38.48-15.25c3.32,4.03,8.15,6.08,11.5,7.26,5.31,1.88,10.82,3.21,16.36,3.95,4.61.61,9.3.83,13.95.63.69-.03,1.43-.03,2.18-.04,2.12,0,4.29-.02,5.95-.62,2.65-1.35,4.53-4.61,5.56-6.4.05-.08.09-.16.14-.24-.04-.01-.07-.03-.1-.04-.72-.26-1.61-.57-2.48-1.03-.68-.35-1.65-.45-2.6-.55-1.63-.17-3.67-.37-4.52-2.24-.19-.33-1.27-1.34-7.02-3.31l-.44-.15c-2.02-.69-3.93-1.34-6.15-2.5-1.04-.54-1.55-1.44-1.8-2.35-2.19,1.37-5.19,1.69-7.17,1.9-.49.05-1.1.12-1.27.17-1.32.59-5.68.78-7.44.31-2.28-.62-7.53-1.49-8.88-1.19-.7.7-2.35,1.46-10.2-1.99-.15.3-.31.7-.39,1.21.07.81,2.19,4.06,4.73,7.19h0s.03-.03.03-.03c.01.01.02.03.04.04h.02s0,.01,0,.02Zm56.26,9.82c.58.15,2.29.04,7.15-1.79.46-.17.85-.32,1.13-.41,3.49-1.18,6.93-2.61,10.24-4.26,3.62-1.8,7.13-3.89,10.44-6.22.14-.1.36-.24.63-.43,3.54-2.37,5.07-3.71,5.72-4.45-.55-.21-1.02-.03-2.74.87-.43.22-.9.47-1.42.72-2.38,1.16-4.76.9-6.05.61-1.09.82-2.13,1.49-2.98,2.04-1.1.7-2.52,1.2-4.17,1.77-2.33.81-4.96,1.73-6.59,3.21-2.72,2.49-7.2,3.92-8.87,4.38-.11.18-.23.4-.34.59-.5.86-1.21,2.1-2.15,3.36Zm-22.68-20.79c.05.33.05.65.05.91,0,1.07.1,1.68.26,1.82,1.99,1.04,3.78,1.66,5.68,2.3l.37.13c4.8,1.65,8.14,3.13,9.05,5.11.19.14,1.21.24,1.82.3,1.2.12,2.56.26,3.81.91.67.35,1.4.61,2.05.84.82.29,1.58.56,2.11,1,1.78-.57,4.77-1.7,6.58-3.35,2.13-1.95,5.24-3.03,7.75-3.9,1.39-.48,2.7-.94,3.41-1.4,2.29-1.47,5.67-3.63,7.16-6.83.59-1.26,1.59-3.27,2.75-5.59,2.17-4.33,4.86-9.73,5.63-11.88.4-1.13.96-2.25,1.49-3.33.58-1.17,1.78-3.61,1.41-4.07-.92-1.14-.99-2.07-.88-2.85-.1-.07-.24-.17-.45-.29-1.26-.75-2.06-1.63-2.71-2.34-.9-.99-1.14-1.2-1.82-1.16-2.84.13-7-1.24-9.05-3.76-.88-1.08-1.7-2.22-2.29-3.08-2.73,1.65-6.59,4.1-8.87,6.35-2.44,2.42-5.67,3.52-8.8,4.59-.82.28-1.64.56-2.44.86l-.94.35c-3.55,1.33-7.98,3-10.85,5.36-2.31,1.9-4.88,4.02-8.04,2.89-.15.56-.32,1.17-.5,1.82-.58,2.1-1.55,5.62-1.5,6.57.02.41.09.92.17,1.49.29,2.27.7,5.37-.63,7.55-.58.95-1.23,1.9-1.79,2.67Zm-65.62-21.35c0,.14-.01.29-.02.43-.07,1.74-.12,2.99.64,4.24.53.86,1.13,1.68,1.77,2.54.42.57.84,1.14,1.25,1.73,2.4,3.51,5.1,6.86,8.03,9.95,3.04,3.21,6.38,6.19,9.94,8.88,1.74,1.31,3.59,2.59,5.48,3.8.06.04.11.07.17.11-2-2.75-3.58-5.51-3.32-7.12.13-.79.36-1.46.62-2.01-2.4-1.15-6.26-3.43-7.78-6.73-.81-1.76-2.44-3.56-4.02-5.31-1.73-1.91-3.38-3.74-4.07-5.62-1.08-.45-2.24-1.23-3.54-2.1-1.65-1.1-3.57-2.39-5.15-2.77Zm39.06,22.48c3.38,0,7.81,1.16,8.51,1.35,1.14.31,4.61.1,5.32-.18.48-.21,1.12-.28,2.17-.39,1.9-.2,5.43-.58,6.54-2.12.13-.18.28-.39.46-.6.57-.76,1.62-2.19,2.49-3.61.71-1.17.39-3.7.17-5.37-.08-.65-.16-1.24-.19-1.72-.08-1.39.58-3.94,1.61-7.65.4-1.44.77-2.8.92-3.56-.51-.89-3.76-3.29-9.82-6.16-4.48-2.11-6.7-7.29-7.31-10.02-.53-2.36-2.49-3.96-4.54-5.33-1.25-.85-2.28-1.2-3.47-1.61-.96-.33-2.05-.7-3.33-1.37-1.04-.55-1.73-1.41-1.98-2.48-.22-.95-.07-1.93.21-2.77-1.61-.19-3.69-.41-5.07-.43-2.85-.08-4.78.8-6.34,2.77-1.68,2.12-4.3,2.09-6.42,2.07-1.56-.02-3.04-.03-3.88.69-1.2,1.03-1.18,1.52-.85,3.98.14,1.07.32,2.39.36,4.04.1,4.15-.67,5.34-1.94,6.93-.39.49-.79.99-1.23,1.74-.78,1.33-.54,2.29-.02,4.02.27.91.58,1.93.63,3.07.09,2.36-.2,4.87-.31,5.73.34,1.28,1.93,3.04,3.48,4.75,1.75,1.94,3.56,3.94,4.58,6.16,1.19,2.59,4.99,4.64,7.09,5.53l.05-.04.88.4c3.38,1.54,6.93,2.78,8.05,2.81.72-.47,1.87-.64,3.18-.64Zm90.72-30.02c1.44,2.1.11,4.8-1.19,7.42-.49,1-1,2.02-1.34,2.97-.84,2.35-3.47,7.61-5.79,12.26-1.15,2.3-2.14,4.28-2.71,5.51-.5,1.08-1.16,2.06-1.89,2.94.37-.08.75-.21,1.12-.39.49-.24.93-.47,1.34-.68,1.83-.95,3.43-1.79,5.43-1.05,1.96.35,2.11.19,3.87-1.63l.22-.23c1.82-1.89,3.52-3.82,5.06-5.75,3.24-4.06,6.12-8.47,8.56-13.12,2.35-4.48,4.28-9.19,5.75-13.99.1-.32.22-.7.36-1.1,1.33-4.04,2.52-8.45-.26-9.58l.04-.11-3.07-2.1c-.04.13-.07.27-.11.42-.09.34-.15.67-.22.98-.37,1.82-.83,4.08-4.46,5.45-2.52.95-4.02,3.85-5.24,6.18l-.25.48c-1.07,2.05-2.6,4.34-5.24,5.12Zm-94.31,31.02h0s0,0,0,0Zm-36.34-26.96c2.7,0,5.5,1.87,7.88,3.46.55.37,1.12.75,1.64,1.07.07-.95.12-2.09.08-3.16-.03-.71-.25-1.45-.49-2.23-.54-1.79-1.22-4.03.34-6.68.56-.96,1.08-1.61,1.49-2.13.89-1.12,1.29-1.62,1.21-4.77-.04-1.47-.19-2.65-.33-3.69-.34-2.53-.63-4.71,1.99-6.96.35-.3.72-.54,1.1-.73-1.87-1.92-4.36-4.82-5.39-7.59-.78-2.11-1.35-4.62-1.89-7.04-.59-2.6-1.14-5.06-1.87-6.63-.33-.71-.69-1.29-1.03-1.85-1.31-2.11-2.09-3.81-.88-7.29-.24-.33-.51-.61-.7-.74-.86.79-1.99,2.13-3.07,3.43-1.06,1.27-2.16,2.58-3.16,3.57-.62.61-1.35,1.21-2.12,1.84-1.44,1.19-3.42,2.82-3.57,3.93h-.09c-.82,2.24-.83,4.97-.83,7.64,0,.57,0,1.13-.01,1.69-.08,4.6.24,9.23.95,13.76.68,4.39,1.73,8.77,3.12,13.01.19.58.38,1.29.58,2.07.56,2.14,1.47,5.58,2.95,6.45.68-.29,1.38-.42,2.09-.42Zm71.23,1.28c1.31.85,2.31.55,5.43-2.02,3.31-2.72,8.02-4.49,11.8-5.91l.93-.35c.84-.32,1.69-.61,2.54-.9,2.9-.99,5.63-1.93,7.53-3.8,2.75-2.72,7.05-5.38,10.87-7.66.98-.58,1.55-1.22,1.71-1.88.16-.7-.1-1.58-.77-2.61-2.12-3.26-3.2-9.8-1.26-14.67,1.78-4.48.06-8.04-1.12-9.77-1.9-2.76-2.54-9.85-2.67-11.52-.72-1.6-2.99-3.53-5.34-3.25-3.2.38-10.63.57-13.42-.43-1.91-.69-7.73-2.78-11.82-3.25-1.76-.2-4.31-.14-6.78-.08-3.22.08-6.27.16-8.18-.3-.46,0-1.38.09-1.96.61-.4.36-.61.92-.64,1.7-.18,5.05-1.21,11.63-5.03,14.28-.59.41-1.22.81-1.84,1.21-2.7,1.72-5.02,3.2-5.22,5.84-.42,5.86-1.37,10.22-2.89,13.22l.17.02-.8,1.1c-.28.44-.57.84-.87,1.2-.45.64-.97,1.78-.84,2.34.01.06.04.15.27.28,1.05.55,1.93.85,2.86,1.17,1.29.44,2.63.9,4.25,2,2.49,1.68,5.15,3.87,5.93,7.38.62,2.77,2.59,6.36,5.48,7.72,9.1,4.29,11.25,6.89,11.68,8.36Zm50.91-13.46c2.13,0,3.27,1.25,4.19,2.26.57.63,1.11,1.22,1.95,1.72.54.32.97.64,1.3.97,1.25-.32,2.25-1.38,3.36-3.5l.25-.47c1.4-2.69,3.31-6.37,7.02-7.77,1.9-.72,2.03-1.38,2.36-2.99.08-.38.16-.76.26-1.16.28-1.08.55-1.91.8-2.48-.09-1.23-.04-4.17,1.67-8.63,1.33-3.49-1.33-13.13-3.32-18.39l.16-.06c-.16-.36-.28-.77-.4-1.18-.16-.53-.33-1.12-.62-1.83-.5-1.23-1.44-2.55-2.44-3.95-.99-1.38-2.01-2.82-2.87-4.47-1.45-2.81-5.04-4.45-7.66-5.65-1.94-.89-7.33-1.57-10.09-1.84-.17.39-.35.92-.62,1.68-2.25,6.49-4.86,10.24-7.78,11.18.32,3.06,1.01,7.16,1.98,8.57,1.26,1.83,3.92,6.76,1.47,12.9-1.61,4.04-.46,9.43.96,11.61,1.19,1.83,1.6,3.57,1.22,5.19-.26,1.11-.87,2.1-1.83,2.96.55.8,1.31,1.85,2.1,2.82,1.18,1.45,4.08,2.62,6.3,2.53.09,0,.18,0,.27,0Zm24.81-14.05l3.54,2.43c1.95-.88,2.05-2.5,2.08-5.74,0-.49,0-.98.02-1.47.12-3.95-.06-7.94-.52-11.87-.43-3.64-1.11-7.29-2.03-10.84-.14-.53-.26-1.09-.38-1.65-.48-2.25-.86-3.5-1.55-4.09-.19,2.45-.54,4.63-.95,5.87-.23.68-.57,1.49-1.29,1.94,1.49,4.4,4.32,13.95,2.54,18.61-1.31,3.43-1.48,5.77-1.47,6.82Zm-127.75-.35c.24,0,.48,0,.71,0,1.92.02,3.15-.03,3.77-.8,2.21-2.79,5.19-4.12,9.02-4.03,2.01.04,5.22.42,6.83.63,1.63-2.43,2.67-6.79,3.12-12.96.31-4.32,3.74-6.5,6.75-8.42.59-.38,1.17-.75,1.73-1.13,2.04-1.41,3.38-5.77,3.6-11.65.08-2.15,1.01-3.41,1.78-4.09.82-.73,1.78-1.09,2.6-1.27-.27-2.1-.9-4.75-1.95-5.92-1.63-1.81-1.87-2.17-2.64-3.4-.29-.46-.67-1.08-1.29-2-.73-1.1-1.14-2-1.36-2.73-.42-.23-.65-.59-.75-.75s-.29-.47-1-.97c-1.12-.81-4.29-.17-5.99.89-1.32.83-2.28,1.04-3.4,1.29-.86.19-1.83.41-3.35.99-2.66,1.02-4.77.33-6.31-.17-.9-.29-1.61-.53-2.23-.42-1.03.17-1.68.62-2.42,1.14-.7.49-1.48,1.04-2.55,1.3-1.52.37-5.46,2.19-8.11,4.95-2.32,2.41-3.82,5.3-4.74,9.09-.85,3.53-1.87,6.58-3.75,11.25-1.12,2.78-.7,3.46.32,5.1.38.61.81,1.31,1.22,2.2.88,1.89,1.47,4.52,2.1,7.31.52,2.32,1.06,4.72,1.77,6.61,1.06,2.86,4.53,6.41,6.26,7.99.09,0,.18,0,.26,0Zm-1.3-67.94c-.37.33-.73.67-1.09,1.01l-.66.62c-2.19,2.04-4.29,4.22-6.23,6.49-4,4.66-7.48,9.8-10.35,15.28-1.91,3.64-3.55,7.45-4.88,11.3-.19.54-.48,1.21-.81,1.99-.88,2.04-2.57,5.96-1.97,7.75.26-.22.52-.43.77-.64.71-.58,1.38-1.14,1.89-1.64.88-.87,1.93-2.12,2.94-3.33,1.27-1.52,2.47-2.95,3.51-3.86.76-.67,1.69-.94,2.62-.77.57.1,1.08.37,1.53.7,1.19-3.13,1.94-5.53,2.59-8.21,1.06-4.4,2.84-7.77,5.58-10.62,1.26-1.31,2.76-2.45,4.25-3.38-.18-.9-.5-2.08-.99-2.84-1.47-2.3-.18-5.79,1.15-8.88.11-.25.21-.55.32-.88l-.18-.1Zm102.56,19.79c2.88.34,7.06.97,9.09,1.91,3.06,1.4,7.25,3.32,9.23,7.15.75,1.44,1.7,2.77,2.62,4.06,1.12,1.57,2.17,3.04,2.82,4.63.07.17.13.33.19.49.26-1.66.45-3.98.49-6.25-.07-.57-.13-1.18-.19-1.8-.23-2.31-.48-4.94-1.38-6.65-1.2-2.3-2.54-4.58-3.98-6.77-2.87-4.39-6.18-8.51-9.82-12.24-3.21-3.29-6.73-6.32-10.46-9.01-.32-.23-.64-.47-.96-.72-1.27-.97-2.59-1.96-3.85-2.23-1.43-.3-3.21-.28-4.95-.26-.46,0-.91,0-1.34,0-.44.67-.94,1.29-1.39,1.78.7.82,1.61,1.73,2.51,2.61,2.11,2.08,3.93,3.88,4.31,5.71.13.6,1.42,2.91,2.45,4.78,3.85,6.96,5.68,10.74,4.6,12.81Zm-19.11,8.27c3.17,0,6.04,2.05,7.48,4.42,1.45-.62,3.45-3.21,5.46-9.01.97-2.8,1.28-3.27,2.59-4.63.16-.17.34-.36.55-.58-.04-1.6-3.04-7.02-4.5-9.66-1.69-3.06-2.58-4.7-2.79-5.72-.17-.83-2.03-2.67-3.38-4-1.43-1.41-2.91-2.87-3.77-4.26-.99-1.59-4.63-2.96-7.29-3.95-1.17-.44-2.28-.86-3.19-1.28-2.8-1.3-15.65-1.8-17.56-1.47-3.01.52-3.68,1.1-3.81,1.25-.08,1.25-1,3.12-9.46,8.89-1.19.81-4.25,5.75-6.71,10.34v.04c0,.79.58,1.84,1.07,2.58.64.96,1.04,1.6,1.34,2.08.68,1.08.8,1.28,2.3,2.94,1.95,2.17,2.62,6.13,2.84,8.24,1.6.16,3.97.1,6.28.05,2.58-.06,5.25-.13,7.24.1,4.01.46,9.09,2.17,12.57,3.43,1.91.69,8.66.65,11.89.26.29-.04.58-.05.87-.05Zm-79.43-29.44c-.28,1.26-.66,2.67-1.08,3.66-1.78,4.14-1.64,5.39-1.4,5.77.58.91.97,2.03,1.22,3.01.94-.42,1.78-.72,2.43-.87.45-.11.88-.41,1.42-.79.9-.63,2.02-1.42,3.81-1.71,1.43-.23,2.69.18,3.8.54,1.35.44,2.53.82,4.08.23,1.74-.67,2.89-.92,3.81-1.13.98-.22,1.52-.34,2.35-.87,2.33-1.46,7.03-2.71,9.72-.78.14.1.27.2.38.29,1.75-3.2,5.23-9.27,7.32-10.69,6.68-4.56,7.83-6.17,8.01-6.5.04-.4.14-.75.3-1.08-.33-.69-.46-1.44-.57-2.06-.09-.49-.17-.95-.31-1.27-.51-1.19-1.08-1.67-2.09-2.55-.21-.18-.42-.36-.65-.57-2.58-1.37-6.28-.49-9.61.31-.46.11-.91.22-1.34.32-6.04,1.37-11.92,3.43-17.47,6.12-2.22,1.08-4.45,2.29-6.63,3.6-.67.4-1.38.73-2.07,1.05-1.2.56-2.34,1.08-2.99,1.86-.32.38-.59.83-.91,1.39-.35.61-.7,1.22-1.05,1.83-.04.21-.09.45-.17.7l-.18-.06c-.04.08-.08.16-.13.23Zm55.59-14.15c4.89,0,13.52.54,16.39,1.87.8.37,1.85.77,2.96,1.18,2.68,1,5.63,2.11,7.56,3.75.49-.58.93-1.2,1.17-1.72q.28-1.89-.63-2.44c-1.34-.81-3.04-1.4-4.68-1.97-.44-.15-.88-.3-1.3-.46-4.03-1.46-8.19-2.6-12.36-3.39-.38-.07-.84-.17-1.39-.28-3.59-.74-13.13-2.7-16.2-.54-.09.07-.18.13-.25.21.55.61,1.05,1.33,1.5,2.36.29.68.42,1.39.53,2.01.02.13.05.28.08.43,1.26-.49,2.62-.73,3.47-.87.54-.09,1.67-.14,3.15-.14Z"/></g></svg>