<?xml version="1.0" encoding="UTF-8"?><svg id="Calque_2" xmlns="http://www.w3.org/2000/svg" viewBox="0 0 170 170"><defs><style>.cls-1{fill:#f4fcee;}.cls-2{fill:#8fe658;}.cls-3{fill:#2c204e;}</style></defs><g id="Calque_1-2"><path class="cls-1" d="m85,170c46.94,0,85-38.06,85-85S131.94,0,85,0,0,38.06,0,85s38.06,85,85,85"/><g><path class="cls-2" d="m82.47,86.1s0,0,0,0c-.65-1.16-2.2-1.81-3.62-1.52-.03,0-.06.01-.09.02,0,0-.01,0-.02-.01-.47-.33-1.28-.4-1.81.04-.89.75-1.26,1.83-.98,2.88.26,1.02,1.22,1.85,2.43,2.11.3.06.61.1.92.1.82,0,1.65-.22,2.3-.63,1.1-.69,1.46-1.92.87-2.99Z"/><path class="cls-2" d="m79.3,91.22c-.42,0-.84-.04-1.23-.13-1.76-.38-3.16-1.64-3.56-3.2-.42-1.6.15-3.29,1.47-4.41.91-.77,2.1-.81,3.03-.44,1.92-.22,3.88.72,4.78,2.33h0c.99,1.77.4,3.87-1.38,4.99-.88.55-1.98.86-3.1.86Zm-1.42-5.4c-.42.34-.6.82-.47,1.32.12.46.65.88,1.3,1.02.69.15,1.55.01,2.11-.34.2-.13.64-.47.35-.99h0c-.33-.59-1.23-.94-2.01-.78l-.7.2-.57-.43Z"/></g><path class="cls-3" d="m88.41,99.39c-.99-.28-2.02-.46-2.98-.62-3.08-.51-5.85-.76-8.46-.77-1.1-.01-2.02.04-2.86.14-.05-.36-.23-.7-.56-.95-4.12-3.09-6.44-8.05-8.3-12.45l-.04-.1c-.52-1.24-1.06-2.52-2.1-3.52.17-.26.24-.58.2-.91-.06-.43-.31-.8-.68-.99-3.18-1.66-6.72-2.62-10.51-2.84-.85-.05-1.73-.06-2.64-.03-.07-1.61-.11-3.24-.15-4.85.23.22.54.36.89.38.67.04,1.34.06,2.01.06,3.53,0,7.08-.58,10.37-1.7.7-.24,1.08-.92.88-1.59-.1-.33-.34-.61-.67-.78-.32-.16-.68-.19-1.01-.08-3.64,1.24-7.62,1.77-11.49,1.52-.36-.02-.71.11-.97.36-.03.02-.04.06-.06.08-.02-.73-.03-1.46-.05-2.2,2.08.42,4.21.63,6.34.63,2.26,0,4.52-.24,6.72-.71.36-.08.65-.29.84-.6.18.17.39.31.63.42.79.38,1.7.34,2.38-.12.58-.39.96-1.03,1.09-1.84.25-1.54-.01-2.68-.78-3.37-.64-.58-1.54-.72-2.48-.39-.48.17-1.19.44-1.81.87-.92.63-1.62,1.64-1.72,2.72-3.5.59-7.14.54-10.61-.17-.22-.05-.44-.03-.65.03,0-.02,0-.04,0-.06-.06-2.49-.11-5.06-.36-7.59-.36-3.67-1.36-7.23-2.35-10.57-.14-.46-.49-.81-.95-.92-.39-.1-.81,0-1.13.24.03-.34.04-.68,0-1.02-.08-.76-.31-1.43-.66-1.99.08.04.16.1.25.12.1.02.2.03.3.03.58,0,1.1-.38,1.26-.95l-.75-.21h0l.76.15c.18-.65.34-1.22.65-1.73l.15-.22c.07-.09.15-.18.23-.26.04-.04.08-.07.12-.1.02-.01.04-.02.06-.04.04-.03.09-.05.17-.1.01,0,.02,0,.03-.01.45-.16.75-.54.84-.97.27.05.55.09.83.09.41,0,.83-.05,1.24-.15,1.95-.46,3.55-2.05,4.52-4.48,1.37-3.44,1.04-7.59-.88-11.1-1.01-1.84-2.43-3.38-4.1-4.49-.2-.41-.59-.7-1.11-.76-3.59-.41-6.63,2.36-7.94,5.11-.72,1.52-1.13,3.27-1.3,5.52-.07,1.04-.07,2.08-.07,3.08,0,.83,0,1.69-.03,2.52-.04.71-.23,1.29-.6,1.82-.38.55-.95,1.03-1.44,1.44-.18.14-.35.28-.53.42-.43.34-.88.68-1.28,1.09-.56.56-1.08,1.22-1.64,2.07-.7,1.07-1.49,2.34-2.04,3.72-.48,1.2-.82,2.47-1.1,3.57-.28,1.09-.53,2.18-.77,3.27-.31,1.35-.62,2.75-1,4.09-.06.2-.12.4-.18.6-.01.03,0,.06-.01.1-.53.94-.94,1.95-1.11,3.07-.17,1.15-.19,2.31-.21,3.43v.38c-.03,1.29-.03,2.57,0,3.81.05,2.53.2,5.09.46,7.61.23,2.26.56,4.52.95,6.76-.64.58-.76,1.41-.83,1.88-.23,1.64-.28,3.29-.14,4.88.06.74.62,1.28,1.31,1.28.02,0,.04,0,.06,0,1.57-.06,3.12-.84,4.28-2.12,1.11,3.55,2.54,7.01,4.31,10.31l.23.42c.4.75.82,1.52,1.15,2.3.19.44.34.89.46,1.33l.03.12c.08.33.22.79.64,1.13.29,2.32-.52,4.68-1.29,6.5-.55,1.31-1.2,2.6-1.83,3.86-.41.81-.82,1.62-1.2,2.44-1.22,2.61-1.94,4.84-2.27,7.01-.2,1.35-.29,2.71-.38,4.03-.08,1.21-.17,2.47-.33,3.68-.15,1.05-.37,2.09-.64,3.11-.15.06-.29.13-.42.25-1.36,1.22-2.17,2.99-2.47,5.43-.12,1.01-.14,2.01-.15,2.86,0,.6,0,1.42.6,2.09.42.47.99.7,1.45.89l.18.07c2.74,1.16,5.74,1.76,8.74,1.76,1.51,0,3.01-.15,4.49-.45,1.35-.28,2.49-.62,3.48-1.05,1.39-.6,2.29-1.52,2.61-2.65.11-.39.04-.8-.2-1.13-.25-.34-.64-.54-1.06-.56-2.28-.08-4.52-1.05-6.14-2.67-.32-.32-.61-.7-.91-1.1-.43-.57-.88-1.16-1.48-1.65-.68-.55-1.41-.84-2.17-.85-.67-.02-1.28.2-1.82.39-.17.06-.35.12-.52.17-.81.24-1.48.33-2.02.29.38-1.19.69-2.4.91-3.62.29-1.64.41-3.31.52-4.92.07-1,.14-2,.25-2.99.25-2.22.88-4.41,1.93-6.71.44-.96.91-1.9,1.38-2.84.58-1.16,1.19-2.37,1.72-3.59.93-2.15,1.92-4.92,1.73-7.84l1.82-.22c.83-.1,1.67-.2,2.5-.28,1.14-.11,2.25-.07,3.48-.02.07,0,.15,0,.22,0,.09,1.01.05,1.86-.14,2.61-.21.82-.59,1.66-1.19,2.67-.42.7-.89,1.39-1.35,2.06l-.46.67c-.67.99-1.33,2-1.99,3-1.3,2-2.58,4.06-3.8,6.12l-.15.25c-1.14,1.91-2.31,3.89-3.33,5.92-.92,1.84-2.12,4.63-1.95,7.66.04.73.63,1.28,1.37,1.28.03,0,.06,0,.08,0,.74-.04,1.27-.63,1.22-1.36-.1-1.78.36-3.67,1.46-5.94.92-1.9,2.02-3.77,3.09-5.58l.28-.48c1.21-2.05,2.47-4.09,3.76-6.08.65-1,1.3-2,1.96-2.99l.58-.85c.44-.65.89-1.3,1.31-1.97.8-1.27,1.31-2.37,1.62-3.45.34-1.18.42-2.48.26-3.95.26-.1.52-.23.76-.39.26-.17.41-.41.51-.67.05-.06.09-.12.12-.19.17-.33.19-.69.07-1.01,0,0,0,0,0,0-.4-1.07-.82-2.17-1.16-3.28-.35-1.11-.63-2.26-.89-3.35l-.03-.14c-.08-.35-.17-.7-.25-1.04.14-.02.29-.03.42-.05.72-.09,1.36-.22,1.94-.4.25-.07.49-.17.74-.26.3-.11.58-.22.85-.28.14-.03.28-.05.42-.07.03,0,.06-.01.09-.01.2.12.43.22.69.22.02,0,.04,0,.06,0,.07.11.14.22.2.34.06.1.11.2.17.3.34.56.7,1.1,1.06,1.64.74,1.09,1.55,2.16,2.41,3.2,1.67,2.01,3.53,3.86,5.54,5.51,1.16.96,2.39,1.86,3.65,2.69.11.08.23.13.36.17.99.8,2.17,1.25,3.41,1.66l.33.11c1.2.4,2.45.81,3.72,1.11,1.27.3,2.45.44,3.54.44,1.6,0,3.01-.32,4.21-.95,1.67-.88,2.95-2.49,3.7-4.64.15-.42.28-.87.4-1.37,0-.02.01-.05.02-.08.02-.09.03-.18.03-.27.05-1.21-1.32-1.59-1.94-1.76Zm-45.35-57.1c-.71-.65-1.65-1.02-2.57-.98-.51.02-.99.16-1.44.41-.65.37-.87,1.14-.49,1.81.38.67,1.16.9,1.82.53.24-.13.57-.02.78.12.29.2.49.59.55,1.09.16,1.2-.5,2.44-1.14,3.63l-.24.45c-1.31,2.5-3.1,5.74-5.42,8.65-.54.68-1.1,1.37-1.43,2.27-.36.97-.32,1.99-.29,2.92.06,1.88.12,3.75.14,5.63.06,4.48-.04,7.91-.33,11.14-.1,1.1-.24,2.24-.58,3.28-.2-.72-.62-1.4-1.24-1.87-.02-.02-.05-.02-.07-.04-.78-4.4-1.26-8.87-1.4-13.33-.06-2.03-.11-4.71.07-7.32.07-1.06.33-1.98.79-2.8.43-.77.96-1.52,1.47-2.24l5.27-7.51c.2-.28.27-.64.19-.99-.08-.37-.31-.71-.62-.89-.61-.37-1.36-.19-1.79.42h0s-2.46,3.52-2.46,3.52c0-.03.01-.06.02-.09.33-1.35.62-2.47.99-3.59.08-.25.17-.5.29-.8l.07-.17v-.02s.01,0,.01-.01h0s.02-.06.03-.1h.01s.07-.16.07-.16c.2-.44.45-.86.71-1.31l.18-.31c.67-1.16,1.52-2.47,2.76-3.45l.26-.2c1.12-.88,2.39-1.88,3.07-3.34.48-1.04.56-2.11.57-2.94,0-.48,0-.96,0-1.44,0-.44,0-.89,0-1.33.01-1.67.09-3.45.54-5.12.39-1.45,1.05-2.65,1.97-3.59.94-.96,2.03-1.53,3.06-1.63.1,0,.21,0,.31,0,.08.08.16.15.26.21t0,0c2.48,1.58,4.23,4.4,4.66,7.54.21,1.5.08,3.04-.37,4.44-.27.83-1.06,2.83-2.69,3.32-.68.2-1.36.15-1.86-.16-.16-.1-.31-.25-.48-.44-.16-.16-.31-.32-.49-.47-.98-.81-1.85-.66-2.41-.39-.31.15-.54.42-.65.77-.11.36-.07.77.11,1.09.27.48.8.72,1.33.65.09.09.19.2.23.25l.11.12s.1.08.14.12c-.55.34-1.04.82-1.42,1.43-.5.8-.76,1.71-.99,2.52-.06.23-.04.47.03.7Zm-7.45,38.81c.76,1.38,2.17,1.65,3.39,1.65.44,0,.86-.04,1.22-.06,1.35-.11,2.94-.29,4.48-.7.59-.16,1.22-.37,1.91-.64.55-.22,1.19-.48,1.76-.92.5-.38.84-.85,1.02-1.4,3.44-.09,6.61.38,9.4,1.4.32.12.64.24.96.38-1.15,1.41-2.01,3.05-2.53,4.83-.17.57-.3,1.16-.38,1.74-.04.3-.07.61-.09.98,0,.01,0,.03,0,.05-.1.02-.23.04-.3.05l-.27.04c-.22.04-.45.07-.67.13-.21.05-.41.13-.6.21l-.25.1c-.59.21-1.17.37-1.74.46l-.18.03c-.33.06-.73.13-1.05.11-.28-.93-.59-1.85-.98-2.74-.52-1.19-1.17-2.29-1.94-3.26-.21-.27-.54-.44-.91-.46-.39-.02-.77.13-1.03.4-.48.5-.5,1.24-.05,1.82,1.85,2.35,2.58,5.43,3.28,8.4.26,1.12.54,2.28.87,3.39.28.96.62,1.88.96,2.79-.38.08-.81.1-1.31.09l-.66-.02c-.77-.03-1.57-.06-2.38,0-.86.06-1.71.16-2.57.26l-2.87.34c-.12.02-.24.03-.36.05-.1-.34-.23-.68-.38-1.05-.4-.97-.88-1.89-1.39-2.83-1.03-1.92-1.88-3.69-2.6-5.42-.87-2.1-1.62-4.3-2.24-6.53-.05-.19-.14-.35-.26-.49.23-.68.43-1.39.56-2.2.06-.36.1-.72.15-1.08.02.04.02.08.04.11Zm45.04,24.63c-1.22-.15-2.44-.5-3.56-.85l-.64-.2c-.92-.28-1.88-.57-2.73-.96-.98-.45-1.58-1-1.78-1.63-.07-.22-.09-.41-.07-.51.02-.03.04-.07.06-.1.01,0,.03-.02.04-.02h0s0,0,.02-.01l.07-.04c.06-.04.13-.07.19-.11l.14-.06s.02,0,.02-.01l.19-.07c.19-.06.39-.12.58-.16.22-.05.45-.1.69-.13l.17-.03s.04,0,.08-.01c0,0,0,0,0,0,.14-.02.28-.03.42-.05.53-.05,1.09-.08,1.73-.1,1.18-.02,2.46.02,3.89.13.65.05,1.31.11,1.96.19.32.04.63.07.94.11h.03s0,0,0,0c.01,0,.02,0,.04,0,.02,0,.04,0,.06,0h0s.69.11.69.11c1.21.18,2.19.35,3.07.56.15.03.3.07.44.11-.41,1.23-.97,2.13-1.72,2.78-1.49,1.29-3.8,1.23-5.03,1.07Zm-21.28-16.86c.03-.22.05-.44.07-.66.02-.28.05-.57.1-.85.22-1.09.59-2.13,1.1-3.09.21-.39.45-.77.7-1.13.58.58.95,1.43,1.3,2.28l.15.37c.6,1.43,1.12,2.59,1.64,3.66,1.33,2.74,2.73,4.97,4.26,6.79.79.94,1.68,1.78,2.62,2.56-.46.2-.91.45-1.29.83-.33.32-.55.71-.69,1.13-3.15-2.48-5.94-5.46-8.16-8.76-.4-.6-.79-1.2-1.16-1.82-.18-.3-.4-.65-.73-.95.03-.12.07-.23.08-.35Zm-13.4-32.71c.35,2.51.41,5.12.47,7.64l.35,12.68c0,.23.03.45.05.68.03.32.06.63.04.91,0,.11-.01.15-.28.32-.4.24-.85.42-1.28.57-1.3.47-2.65.78-4.12.94l-.2.02c-.7.08-1.43.16-2.12.16-.51,0-.84-.1-.96-.3-.36-.65-1.13-.87-1.78-.5-.18.1-.32.24-.44.39.1-1.16.16-2.31.2-3.37.08-1.85.12-3.82.11-6.02,0-1.72-.05-3.61-.12-5.95,0-.25-.02-.5-.03-.75-.04-.68-.07-1.33.02-1.93.1-.65.51-1.22.93-1.75,2.05-2.57,3.93-5.55,5.94-9.39l.13-.25c.39-.75.81-1.54,1.1-2.39.8,2.7,1.61,5.48,2,8.29Zm-14.02,86.47l-.14-.06c-.07-.03-.14-.06-.2-.09-.04-.73,0-1.52.07-2.27.4-.06.75-.3.95-.7.21-.44.4-.88.59-1.33.78.18,1.64.2,2.59.04.72-.13,1.38-.35,2.01-.56.58-.2.8-.16,1.03-.02.35.22.65.63.98,1.06.39.51.79,1.04,1.26,1.52.97,1,2.16,1.83,3.43,2.42.53.25,1.08.46,1.63.62-.61.22-1.25.38-1.87.52-1.8.42-3.68.58-5.58.47-1.87-.11-3.71-.48-5.49-1.12-.42-.15-.84-.32-1.25-.5Z"/><g><path class="cls-3" d="m133.3,134.78c-.64-.05-1.22.1-1.74.24-.15.04-.3.08-.45.11-.62.14-1.35.16-2.3.07-.54-.05-1.1-.19-1.66-.36.03,0,.07,0,.1-.01.65-.19,1.02-.8.92-1.53h0s-2.05-15.71-2.05-15.71c-.19-1.43-.38-2.86-.56-4.29-.47-3.57-.96-7.26-1.39-10.89-.37-3.16-.63-5.97-.79-8.59-.05-.73-.61-1.29-1.31-1.29-.35,0-.7.15-.95.42-.25.26-.38.61-.35.96.08,1.3.19,2.61.31,3.92-.14.1-.27.23-.37.38h0s-5,7.52-5,7.52c-.28.42-.63.94-.64,1.64,0,.66.27,1.21.55,1.66.97,1.6,1.74,3.13,2.35,4.68.32.83.61,1.67.86,2.51.29.98.56,1.8.93,2.62.28.6.59,1.19.9,1.78.56,1.07,1.1,2.08,1.43,3.19.03.11.08.22.14.32-.06.2-.12.33-.25.55-.04.06-.08.13-.1.16-.02.02-.04.06-.07.1,0,0-.02.02-.02.03-.07.09-.15.17-.23.25-.34-.07-.66.02-.93.2-4.47-3.61-8.29-8.19-11.04-13.26-.73-1.34-1.38-2.7-1.94-4.05l-.07-.16c-.56-1.35-1.15-2.75-1.05-4.12.09-1.29.89-2.5,1.67-3.67l.12-.17c.89-1.34,1.86-2.71,2.89-4.08,2.33-3.1,4.91-6.11,7.15-8.69.48-.55.46-1.34-.03-1.85-.26-.26-.62-.4-1-.39-.36.01-.69.16-.92.43-2.18,2.51-4.49,5.22-6.62,7.99-1.16,1.5-2.17,2.9-3.09,4.25l-.25.36c-.9,1.31-1.83,2.66-2.3,4.25-.61,2.06-.03,4.05.54,5.55.56,1.47,1.21,2.94,1.93,4.37,1.39,2.77,3.1,5.44,5.07,7.94,1.94,2.46,4.13,4.72,6.5,6.72.27.22.54.44.81.66-.38,1.26-.49,2.56-.57,3.83-.03.37-.05.75-.08,1.12-.07.75-.21,1.53-.44,2.46-.24.97-.44,2.02-.24,3.07.09.44.26.83.46,1.19-.39.12-.81.22-1.24.33-1.74.42-3.72.89-4.76,2.74-.79,1.41-.68,2.99.29,4.03.99,1.05,2.42,1.15,3.57,1.22l.41.03c.87.07,1.73.17,2.6.27,1.57.18,3.19.37,4.83.37.32,0,.64,0,.96-.02,1.42-.07,2.82-.33,4.18-.58l.69-.13c1.5-.27,3.2-.57,4.89-.7.74-.06,1.3-.65,1.27-1.35-.02-.66.04-1.34.12-2.05l.06-.57c.1-1.07.21-2.28.19-3.48-.02-1.01-.09-2.16-.67-3.13-.48-.8-1.28-1.3-2.19-1.38Zm-18.61,9.87c-.21-.07-.34-.17-.41-.31-.07-.17-.05-.41.06-.66.27-.6.88-1.01,1.98-1.31.35-.1.71-.19,1.07-.27.81-.2,1.64-.4,2.46-.74,2.21-.92,4.14-2.43,5.53-4.32.03.01.06.03.09.04,1.58.63,3.32.9,5.02.79.64-.04,1.22-.18,1.78-.31l.4-.09c.21-.05.36-.07.47-.03.01.01.03.03.04.04,0,.01.02.03.03.04h.01s.01.04.02.06c.06.15.1.3.13.46.08.38.1.74.11,1.18.03,1.02-.06,2.02-.16,3.13l-.07.69c-.04.38-.08.77-.11,1.17-1.35.16-2.69.4-4,.63-1.1.2-2.24.4-3.35.55-2.16.29-4.42.02-6.6-.23l-1.16-.13c-.65-.07-1.3-.14-1.95-.18h-.11c-.47-.04-.91-.07-1.31-.2Zm3.05-37.2c.31-.53.67-1.03,1.01-1.54.18-.26.35-.52.53-.78l2.21-3.32c.28,2.48.6,4.98.93,7.5.48,3.69.96,7.38,1.44,11.06l.14,1.11c-.33-.75-.7-1.47-1.07-2.18-.15-.29-.3-.57-.45-.86-.29-.56-.64-1.31-.89-2.09-.08-.27-.16-.54-.24-.8-.18-.59-.35-1.18-.56-1.76-.63-1.75-1.39-3.44-2.28-5.01-.17-.3-.34-.59-.52-.88l-.18-.29s-.06-.1-.09-.15Zm6.12,19.04c.27-.36.48-.77.65-1.18l.56,4.32c-.21.25-.33.56-.31.89.06,1.18-.03,2.35-.29,3.48,0,.03,0,.05,0,.08-.27.1-.51.28-.67.54-.81,1.37-1.96,2.55-3.33,3.43-.02,0-.03-.03-.05-.03-.1-.04-.27-.32-.32-.72-.08-.56.09-1.2.25-1.82l.07-.26c.32-1.26.42-2.53.51-3.77.03-.4.06-.81.1-1.21.08-.9.23-1.62.45-2.25.03,0,.05.01.08.01.31,0,.62-.08.9-.25.52-.29,1-.73,1.41-1.26Zm3.55,6.9h0,0Z"/><path class="cls-3" d="m136.33,84.51c-.32-.08-.65-.04-.92.12-.31.17-.53.47-.62.83l-.15.59c-1.42,5.75-2.9,11.69-2.69,17.81.07,2.23.41,4.43.73,6.56.15.99.3,1.99.42,2.98.37,2.96.49,6.03.35,9.1-.15,3.4-.63,6.82-1.43,10.14-.18.73.25,1.44.98,1.62.11.03.21.04.31.04.58,0,1.07-.39,1.22-.99,1.48-6.16,1.92-12.46,1.3-18.74-.14-1.46-.37-2.92-.58-4.33-.25-1.66-.51-3.37-.64-5.06-.21-2.79-.07-5.72.45-8.96.5-3.13,1.28-6.26,2.03-9.29l.2-.8c.18-.73-.24-1.44-.96-1.62Z"/><path class="cls-3" d="m146.45,64.41c-.34-.81-.77-1.58-1.18-2.33l-.26-.47c-.5-.92-1.02-1.83-1.55-2.74-.72-1.24-1.45-2.46-2.19-3.69l-.96-1.6c-.93-1.56-2.02-3.41-3.05-5.35-.24-.46-.48-.92-.71-1.39-.59-1.19-1.21-2.42-2.02-3.54-.67-.92-1.42-1.64-2.24-2.18.31-.4.38-.95.12-1.43-.58-1.08-1.37-1.95-2.07-2.71-.78-.85-1.29-1.69-1.58-2.57-.34-1.05-.4-2.15-.41-3.18v-.19c-.02-1.26-.04-2.57-.12-3.87-.09-1.51-.2-2.82-.35-4-.14-1.13-.36-2.45-.94-3.73-.96-2.14-2.87-3.6-5.12-3.92-2.08-.29-4.35.31-6.08,1.62-1.66,1.26-2.93,3.11-3.67,5.36-.72,2.21-.8,4.65-.22,7.07.28,1.19.75,2.31,1.16,3.27.36.83.78,1.7,1.41,2.44.78.91,1.83,1.37,2.9,1.26,1.01-.1,1.93-.51,2.79-.97.74,1.04,1.11,2.47.95,3.77-.04.33.02.63.16.88-.03.02-.06.03-.08.05-.68.5-1.03,1.24-1.35,1.9l-.11.23c-1.88,3.82-2.94,8.29-3.26,13.68-.19,3.24-.1,6.53-.02,9.7.04,1.6.08,3.19.09,4.79v.38c0,.56.01,1.1-.03,1.62-.02.31-.06.61-.09.92l-.04.36c-.1,1.05-.2,2.17-.18,3.28.02,1.05.1,2.24.75,3.18.48.69,1.19,1.05,2.01,1.05.48,0,.98-.12,1.5-.37.22-.11.46-.25.71-.42-1.16,1.94-1.75,3.89-1.74,5.78,0,2.23,1.1,4.55,3.52,4.7.07,0,.13,0,.2,0,1.07,0,2.05-.54,2.54-1.4.59-1.05.35-2.19.16-3.12-.04-.18-.07-.35-.1-.52-.04-.23-.07-.45-.1-.67.25-.22.49-.47.7-.73.5-.6.89-1.26,1.17-1.96,0,0,0,0,.01,0,.02,0,.05,0,.07,0,2.29-.12,4.12-.41,5.76-.93,1.64-.52,3.29-1.18,4.22-2.53.77-1.12.6-2.57.48-3.52,0-.02-.01-.03-.01-.05.7-.45,1.39-.92,2.07-1.41,1.81-1.3,3.18-2.5,4.31-3.77.78-.87,1.35-1.62,1.79-2.37.37-.61.57-1.19.63-1.77.06-.59-.05-1.19-.35-1.89Zm-24.75,14.26c-.18-.32-.51-.56-.88-.64-.36-.08-.71-.01-.99.19-.23.16-.44.29-.7.42l-.08.03s-.02,0-.03,0l-.02-.03h0c-.03-.08-.05-.16-.07-.24-.02-.08-.04-.16-.05-.24l-.02-.15s0-.02,0-.03c0,0,0,0,0-.01-.02-.23-.04-.45-.05-.68-.04-1.02.06-2.02.16-3.08.08-.88.17-1.79.17-2.71,0-1.92-.04-3.87-.09-5.75-.07-2.71-.14-5.5-.04-8.24.19-5.13.96-9.14,2.44-12.61.33-.77.7-1.64,1.22-2.44l.02-.03s0,0,0,0c.05-.02.12-.04.12-.04.13-.04.27-.06.41-.09.06-.01.12-.03.18-.04-.09.47-.04.95.17,1.42.14.32.4.56.75.67.37.12.79.08,1.12-.11.52-.31.75-.9.6-1.5.07-.05.23-.11.59-.14.98-.08,1.81-.06,2.52.07.76.13,1.4.4,1.96.81.46.34.92.83,1.36,1.45.67.95,1.19,2,1.74,3.1.22.45.45.9.68,1.34.79,1.5,1.69,3.08,2.9,5.12.41.69.82,1.37,1.23,2.06,1.56,2.6,3.17,5.3,4.58,8.03l.11.2c.36.68.57,1.12.38,1.56-.29.69-.88,1.38-1.35,1.94-.97,1.14-2.15,2.23-3.61,3.32-1.38,1.03-2.83,1.95-4.3,2.88l-6.53,4.09c-.17.11-.31.25-.41.42-.11-.27-.3-.51-.55-.66-.29-.17-.62-.22-.95-.15,1.01-1.04,2.1-2.01,3.18-2.97.53-.47,1.05-.94,1.57-1.42,1.23-1.14,2.66-2.51,3.9-4.07.66-.83,1.21-1.61,1.67-2.39.27-.45.56-.98.68-1.61.12-.69.02-1.38-.33-2.09-.2-.4-.43-.76-.66-1.11l-.18-.28c-.31-.49-.63-.98-.94-1.47-.59-.9-1.19-1.8-1.79-2.69l-.67-.99c-1-1.47-1.99-2.94-2.95-4.44-.3-.47-.61-.95-.9-1.43-.25-.41-.67-.64-1.16-.63-.49.02-.95.3-1.17.73-.22.4-.19.89.06,1.29,1.24,2,2.58,3.97,3.87,5.88,1.18,1.75,2.41,3.56,3.55,5.38l.19.3c.19.29.38.57.47.83.05.14.04.31-.16.67-.37.69-.85,1.41-1.47,2.19-1.19,1.51-2.58,2.86-3.79,3.97-.5.46-1.01.92-1.52,1.38-2.1,1.89-4.25,3.83-5.92,6.2.02-.26-.01-.52-.15-.76Zm-5.01-44.88c-.1-.07-.3-.27-.44-.47-.18-.26-.35-.56-.55-.96-.4-.82-.72-1.6-.96-2.33-.68-2.03-.8-4.07-.37-5.88.43-1.8,1.26-3.32,2.42-4.41,1.08-1.03,2.57-1.63,4.01-1.63.06,0,.11,0,.17,0,1.45.05,2.73.86,3.43,2.16.48.89.68,1.93.81,2.83.17,1.2.26,2.42.33,3.56.02.38.05.75.07,1.13-.45.02-.84.28-1.06.69-.42.79-.99,1.49-1.77,2.17-.63.55-1.34,1-2.09,1.47l-.31.19c-.75.48-1.53.97-2.33,1.3-.42.17-.73.26-.97.28-.18.01-.23,0-.39-.11Zm6.5-.11c1.03-.71,1.86-1.43,2.51-2.2.02.84.08,1.73.24,2.61.22,1.13.64,2.18,1.26,3.15-.98,1.09-2.24,1.88-3.64,2.26.17-1.88-.27-3.7-1.26-5.23.3-.19.6-.39.89-.58Zm5.08,6.25c.09-.07.18-.13.27-.21.13-.12.25-.25.37-.37.14.15.28.3.41.46.07.08.13.18.19.26-.4-.06-.81-.12-1.24-.14Zm6.73,38.15c-.14.12-.36.26-.64.41-.65.35-1.42.64-2.31.89l3.39-2.13c0,.14-.03.34-.09.45-.07.12-.17.23-.35.38Zm-12.65,6.18c.15-.5.36-1.01.62-1.53-.04.25-.08.51-.1.78-.01.17-.02.33-.02.5-.13.07-.26.14-.39.21-.03.02-.07.03-.1.05Zm-.02,3.58c.29-.16.52-.43.64-.77.02-.06.08-.13.17-.2,0,.05.02.1.03.16l.06.31c.07.33.14.65.11.9,0,0-.05.11-.05.11-.16.09-.49.06-.68-.12-.12-.11-.21-.24-.29-.39Z"/></g></g></svg>