<?xml version="1.0" encoding="UTF-8"?><svg id="Calque_2" xmlns="http://www.w3.org/2000/svg" viewBox="0 0 170 170"><defs><style>.cls-1{fill:#f4fcee;}.cls-2{fill:#8fe658;}.cls-3{fill:#2c204e;}</style></defs><g id="Calque_1-2"><path class="cls-1" d="m85,170c46.94,0,85-38.06,85-85S131.94,0,85,0,0,38.06,0,85s38.06,85,85,85"/><g><path class="cls-2" d="m62.9,83.84c-1.76-1.4-3.52-1.8-4.93-1.14,0,0,0,0,0,0-.72-.07-1.44.28-1.87.92-.38.55-.48,1.21-.32,1.98.14.67.41,1.39.79,2.09.86,1.62,2.27,2.67,3.88,2.86.16.02.31.03.47.03,1.54,0,2.94-.92,3.51-2.34.71-1.78-.31-3.43-1.5-4.39Zm-2.4,2.3c.67.44.85.77.85.88,0,.03-.05.09-.07.11-.07.07-.17.15-.32.17-.41.05-.89-.29-1.19-.65-.2-.23-.37-.54-.52-.91,0,0,.01,0,.02-.01.2-.14.6,0,1.23.42Z"/><path class="cls-2" d="m60.9,91.07c-.17,0-.35-.01-.53-.03-1.77-.21-3.32-1.35-4.26-3.12-.39-.74-.68-1.51-.83-2.22-.2-.9-.06-1.7.39-2.36.51-.74,1.34-1.16,2.2-1.14,1.58-.68,3.47-.23,5.33,1.26h0c1.33,1.07,2.46,2.93,1.65,4.96-.65,1.61-2.2,2.65-3.97,2.65Zm-3.12-7.88c-.48,0-.97.26-1.28.71-.29.43-.38.96-.24,1.58.13.62.39,1.3.74,1.96.78,1.48,2.05,2.42,3.49,2.6,1.52.18,2.91-.65,3.45-2,.61-1.52-.3-2.97-1.35-3.81-1.6-1.28-3.16-1.66-4.41-1.08l-.14.07-.15-.03s-.08,0-.11,0Zm3.11,4.61c-.58,0-1.14-.42-1.49-.83-.23-.27-.43-.62-.6-1.04l-.16-.38.35-.22c.51-.35,1.19.01,1.8.4.69.45,1.07.91,1.08,1.3,0,.17-.07.32-.22.47-.17.17-.39.28-.62.31-.05,0-.1,0-.15,0Z"/></g><g><path class="cls-3" d="m118.73,23.62c-.64-.55-1.38-.93-2.22-1.17-.09-.25-.18-.49-.31-.73-.37-.7-1.17-1.61-2.24-1.86-.68-.16-1.34-.02-1.91.4-.84.62-.89,1.53-.88,2.26-.11.02-.22.04-.33.06-.67.13-1.3.25-1.94.33-.95.11-2,.18-3.29.22-.89.02-1.77.03-2.66.03-1.36,0-2.76.01-4.15.09-2.97.17-5.37.68-7.53,1.6-.49.21-.81.62-.87,1.12-.06.53.19,1.1.65,1.44.46.35,1.05.42,1.58.19t0,0c3.16-1.35,6.75-1.36,10.22-1.37h1.21c1.01-.01,2.07-.04,3.14-.1.06.14.13.28.23.4.32.41.69.75,1.06,1.03h-.04c-.66.21-1.1.8-1.1,1.49,0,.65.4,1.2.99,1.42-1.16.06-2.36.12-3.54.31-1.59.25-3.1.76-4.51,1.53-.64.35-1.24.73-1.95,1.2-.2.13-.4.27-.6.42-.18.13-.36.25-.53.37-.05-.04-.09-.08-.15-.11l-.17-.08c-.18-.11-.38-.17-.59-.19-.22-.04-.45-.02-.62.03-.22.05-.42.15-.6.29-.18.13-.33.3-.44.5-.01.03-.06.12-.07.15,0,0-.04.09-.04.09-.02.04-.03.08-.04.12-.08.29-.08.58,0,.87.01.04.09.23.1.27.02.04.04.09.06.13.03.06.08.1.12.15,0,.19-.05.41-.09.61l-.06.33c-.11.62-.2,1.28-.28,2.04-.07.64-.12,1.28-.18,1.92-.06.69-.11,1.37-.19,2.06-.25,2.3-.68,4.73-1.33,7.64-.61,2.72-1.34,5.46-2.05,8.12-.61,2.3-1.24,4.67-1.8,7.03-.62,2.65-1.09,5.08-1.42,7.39-.21-.11-.44-.19-.68-.2-3.03-.13-6.03-.99-8.67-2.48-1.04-.59-1.95-1.31-2.92-2.07-.26-.21-.53-.42-.8-.62-1.19-.92-2.43-1.3-3.55-1.16.94-2.35,1.91-4.77,2.39-7.25.43-2.22.45-4.3.07-6.18-.43-2.08-1.38-3.96-2.3-5.79-.17-.34-.45-.58-.78-.71-.06-.2-.15-.39-.3-.55-.37-.41-.96-.6-1.52-.48-.54.11-.96.5-1.14,1.03-.32,1-1.25,1.81-2.11,2.48-.68.53-1.42,1.02-2.14,1.5-.51.34-1.02.68-1.52,1.04-1.15.82-2.32,1.74-3.17,2.98-.68.98-1.14,2.1-1.6,3.19-.11.27-.22.54-.34.8-1.35,3.09-2.43,6.31-3.48,9.43-.61,1.82-1.25,3.71-1.92,5.53-.18.48-.36.95-.55,1.42-.24.6-.47,1.2-.69,1.82-.05-.02-.1-.04-.15-.06-.54-.17-1.1-.05-1.49.29.02-.03.04-.05.05-.08,1.04-1.57,1.48-3.5,1.84-5.04.39-1.68.68-3.4.96-5.06l.17-.98c.35-2,.7-3.68,1.28-5.34.71-2.01,1.69-4.01,3.01-6.12.56-.9,1.16-1.78,1.75-2.67.59-.87,1.17-1.74,1.73-2.63,1.36-2.16,2.48-4.36,3.35-6.56,1.19-3.03,2.6-5.56,4.31-7.75.77-.99,1.71-2.11,2.81-2.9.74-.53,1.57-.98,2.52-1.37.35,1.01.78,1.98,1.31,2.88,1.12,1.9,2.94,3.32,5.56,4.32.45.17.88.25,1.29.25,2.33,0,3.86-2.55,4.66-3.87,1.4-2.34,2.26-4.9,3.09-7.37.17-.51.07-1.05-.28-1.44-.37-.41-.96-.61-1.52-.49-.54.11-.97.49-1.16,1.07-.62,1.85-1.26,3.75-2.13,5.49-.45.9-.92,1.67-1.49,2.43-.35.48-.89,1.19-1.27,1.1-.77-.2-1.66-.72-2.34-1.16-.7-.45-1.28-1.06-1.76-1.88-.9-1.53-1.51-3.37-1.77-5.32-.28-2.15-.1-4.31.53-6.43.42-.06.8-.28,1.06-.65,1.41-2.03,4.11-3.7,6.35-2.82,2.11.83,2.69,3.53,3.19,5.91.07.32.13.63.2.92.1.44.36.79.74.98.21.11.46.17.7.17.12,0,.24-.01.36-.04.86-.2,1.38-1.01,1.19-1.86l-.12-.55c-.73-3.26-1.64-7.31-5.52-8.54-3.81-1.21-7.68,1.3-9.66,4.15-.09.12-.15.26-.19.4-.57.08-1.06.48-1.24,1.07t0,0c-.81,2.7-.96,5.56-.52,8.27-2.43.94-4.44,2.36-6.12,4.31-1.93,2.24-3.53,4.77-4.78,7.52-.28.62-.53,1.25-.78,1.88-.26.65-.52,1.3-.81,1.94-.52,1.12-1.12,2.27-1.81,3.41-.71,1.18-1.49,2.35-2.25,3.48-.51.76-1.02,1.52-1.51,2.29-1.47,2.3-2.59,4.5-3.42,6.72-.79,2.13-1.22,4.3-1.54,6.15l-.18,1.04c-.31,1.8-.62,3.67-1.07,5.45-.21.86-.46,1.78-.81,2.63-.33.78-.84,1.45-1.48,2.24l-.11.13c-.87,1.08-1.77,2.19-2.25,3.6-.49,1.42-.51,3.36.9,4.56.7.6,1.62.78,2.46.49.59-.21,1.01-.61,1.36-1.03l-.11,1.09c-.06.57.25,1.13.78,1.43.24.14.51.21.77.21.3,0,.6-.09.84-.28,1.71-1.29,2.21-3.16,2.46-4.65.05-.31.1-.63.14-.94.07-.53.15-1.05.26-1.57.15-.72.42-1.41.71-2.14l.18-.45c1.14-2.96,2.25-6.08,3.41-9.55.69-2.06,1.47-4.4,2.39-6.61.49-1.18,1.04-2.4,1.75-3.85.56-1.16,1.55-1.98,2.44-2.63.54-.39,1.13-.77,1.73-1.16,1.45-.93,3.01-1.96,4.17-3.32.59,1.2,1.13,2.44,1.42,3.72.35,1.52.33,3.24-.04,5.11-.47,2.36-1.4,4.65-2.29,6.87-.43,1.07-.88,2.17-1.27,3.28-1.51,4.23-1.85,7.68-1.08,10.84.83,3.38,2.69,6.34,4.5,9.22l.19.31c1.19,1.9,2.44,3.77,3.7,5.63-.28-.23-.63-.38-1.03-.4-.29-.02-.56.02-.81.05l-.21.03c-.29.03-.58.06-.88.1-1.11.14-2.23.32-3.34.54-.29.06-.54.19-.73.37-.2-.12-.42-.22-.67-.25-1.05-.14-2.5-.39-3.9-.63-1.12-.19-2.27-.39-3.24-.54-.02-.01-.04-.03-.07-.04-1.62-.64-3.36.41-3.97,1.79-.51,1.15-.34,2.32-.21,3.17l1.23,8.15c.23,1.5.48,3.2,1.23,4.78.48,1.01,1.07,1.73,1.81,2.21.61.39,1.31.59,1.99.59.57,0,1.13-.14,1.62-.42.57-.33,1-.83,1.28-1.44,0-.01.01-.03.02-.05.02-.03.03-.06.05-.1.68-1.3.85-3.04,1.01-4.73.14-1.44.27-2.94.74-3.84.07-.13.14-.26.21-.4.06-.1.12-.21.17-.32.49.25,1.08.24,1.57-.09.14-.02.49.08.61.11.5.14.99.31,1.49.47l.35.12c.92.31,1.89.61,2.9.78-.01.04-.03.09-.04.13-.59,2.4-.81,5.07-.64,7.94.3,5.02,1.68,9.88,3.03,14.57l.28.98c.74,2.59,1.56,5.61,2.08,8.63.09.53.43.94.9,1.12.16.06.34.09.51.09.37,0,.75-.13,1.05-.38.44-.36.64-.91.54-1.47-.56-3.3-1.52-6.63-2.45-9.84-1.83-6.34-3.72-12.9-2.61-19.46.25-1.46.57-2.6,1.02-3.57.57-1.23,1.44-2.32,2.22-3.24.04-.05.06-.1.1-.15.37-.15.68-.42.84-.77.22-.46.16-1-.14-1.44l-.08-.11c-2.07-2.98-4.22-6.06-6.21-9.16l-.46-.72c-1.72-2.67-3.5-5.42-4.39-8.39-1.02-3.38-.33-6.59.83-9.85.44.2.96.17,1.41-.12.51-.34,1.17.09,2.28,1.06.2.17.39.34.57.48,1.23.97,2.55,1.79,3.92,2.46,2.8,1.36,5.81,2.13,8.93,2.26.02,0,.05,0,.07,0,.37,0,.72-.13.98-.37.12.11.27.19.43.25.02.36.16.72.44,1h0c1.2,1.21,2.57,2.22,3.89,3.2,1.3.96,2.52,1.87,3.62,2.96,1.99,1.98,3.65,4.44,4.79,7.11,1.14,2.65,1.77,5.56,1.83,8.4v.44c.05.91.11,2.6-.52,2.98-.37.22-.91.35-1.43.48-.23.06-.46.11-.68.18-.9.26-1.79.51-2.7.75l-.52.14c-3.26.85-5.53,1.44-8.65,1.06.01-.1.02-.2.03-.3.18-1.55.37-3.15.15-4.76-.18-1.33-.63-2.6-1.1-3.82.92-.21,1.86-.24,2.76-.08.67.12,1.29.31,1.82.55.31.15.62.31.9.5.09.06.19.12.28.19.03.18.1.35.19.51.29.47.82.78,1.37.78,0,0,.02,0,.03,0,.53-.01,1-.3,1.26-.78.99-1.79-1.04-3.03-1.71-3.43-.86-.52-1.84-.93-2.83-1.18-1.72-.43-3.52-.4-5.18.05-.61-1.61-1.23-3.21-1.88-4.79l-.17-.41c-.65-1.61-1.32-3.27-2.61-4.61-.59-.62-1.51-.63-2.14-.03-.63.6-.66,1.56-.06,2.18.91.95,1.44,2.29,1.96,3.58l.22.55c.72,1.76,1.41,3.55,2.06,5.29.14.37.29.75.43,1.13.49,1.26,1,2.57,1.27,3.85.29,1.35.1,2.85-.08,4.3-.04.36-.09.73-.13,1.08l-1.18,11.29c-.1.97-.21,1.95-.32,2.92-.3,2.69-.6,5.48-.78,8.24-.19,3.04-.26,7.58,1.35,11.79.24.63.83,1.01,1.47,1.01.2,0,.4-.04.6-.11.78-.3,1.14-1.11.85-1.88-1.05-2.76-1.44-5.98-1.22-10.13.15-2.77.46-5.59.76-8.32.1-.94.21-1.88.31-2.83l.96-9.26c.75.09,1.45.13,2.12.13,2.26,0,4.21-.46,6.72-1.05,2.09-.49,4.08-1.04,5.94-1.63,1.82-.59,2.82-1.92,3.05-4.09.67-6.36-1.59-13.32-6.05-18.6-1.15-1.37-2.5-2.63-4.1-3.85-.43-.33-.86-.64-1.29-.96-1.26-.92-2.45-1.79-3.49-2.85-.13-.13-.28-.23-.43-.3.65-5.08,1.99-10.12,3.29-15.01,1.38-5.19,2.8-10.55,3.43-16.02.09-.75.15-1.51.21-2.27.06-.73.12-1.46.21-2.19.04-.32.1-.66.17-1,.06-.31.12-.63.16-.96.46-.16.86-.43,1.18-.67.1-.07.2-.14.29-.21l.24-.16c.52-.35,1.05-.7,1.59-1.03,1.36-.83,2.72-1.35,4.14-1.6,1.25-.21,2.5-.27,3.82-.34,1.88-.09,3.81-.19,5.72-.75.32-.09.58-.28.77-.53.47.17.92.28,1.36.32.04,0,.07,0,.11,0,.36,0,.71-.14.99-.4.3-.28.48-.66.5-1.06.06.02.12.04.19.05.07,0,.14.01.21.01.72,0,1.3-.5,1.4-1.24.21-1.55.6-4.43-1.55-6.27Zm-55.21,75.01c-.14.38-.23.78-.25,1.21-.03.66.13,1.31.51,1.97.07.13-.07.41-.28.8-.06.11-.12.22-.17.33-.44.87-.58,1.98-.64,3.2-.2-.46-.38-.91-.54-1.36-.49-1.45-.76-3.09-.85-5.33-.01-.32-.03-.7-.08-1.12l2.31.3Zm-2.31,13.69c-.06.02-.27.02-.46-.1-.25-.16-.48-.47-.7-.95-.56-1.18-.77-2.58-.97-3.94l-1.23-8.15c-.08-.53-.17-1.14-.02-1.48.01-.02.03-.05.05-.07.32.43.36,1.44.39,1.96.11,2.54.42,4.44,1.01,6.18.26.76.57,1.48.88,2.18.52,1.2,1.02,2.33,1.16,3.47.07.55-.05.88-.11.91ZM112.84,26.89c-.12-.14-.25-.27-.38-.38.53-.32.95-.75,1.25-1.28.09,0,.19-.01.28-.01.02.16.04.33.05.49v.1c.04.29.13.54.28.76-.37.4-.76.82-1.08,1.32-.03-.35-.16-.7-.4-.99Zm4.17,2.56h0s-.06,0-.08,0c.04,0,.06,0,.08,0-.08-.02-.16-.04-.24-.06-.09-.03-.18-.05-.25-.08v.02s-.09-.05-.13-.07h0s0,0,0,0c0,0-.02,0-.02-.01-.07-.04-.15-.07-.22-.11l.07-.08c.14-.16.29-.32.49-.53l.17-.18c.17-.18.35-.38.53-.59,0,.5-.07,1.03-.14,1.55,0,.06,0,.12,0,.19-.08-.02-.16-.03-.24-.04Zm-69.4,48.71c-.64,1.18-1.33,2.31-2.07,3.35-.1.14-.19.28-.29.43-.11.17-.22.33-.33.49.08-1.16,1.02-2.28,1.94-3.36.25-.3.51-.6.75-.91Zm23.33,23.53l-.63-.21c-.99-.34-2.28-.76-3.51-.37-.04-.15-.09-.29-.16-.44l-.07-.16c-.22-.45-.25-.55-.18-.77.13-.43.45-.84.75-1.17.23.14.49.24.78.24.1,0,.21-.01.32-.03.79-.16,1.58-.29,2.37-.4.39-.05.78-.11,1.25-.16l.34-.04c.43.23.94.23,1.39,0,0,0,0,0,0,0,.67-.35,1.02-1.09.86-1.82-.02-.09-.07-.16-.1-.24.71,1.04,1.43,2.08,2.14,3.11-.92,1.13-1.65,2.21-2.22,3.28-1.11-.08-2.19-.43-3.32-.81Z"/><path class="cls-3" d="m91.73,148.65c-.95-1.3-2.05-2.47-3.12-3.61l-.27-.29c-.44-.47-.87-.95-1.31-1.43-.92-1.01-1.87-2.05-2.87-3.02-.92-.89-2.09-1.36-3.13-1.26-.75.07-1.4.43-1.89,1.04-.02-.14-.06-.28-.12-.42-.32-.73-1.19-1.25-2.11-.85h0c-1.49.65-2.47,2.19-2.57,4.02-.1,1.87.82,3.54,1.69,4.96.92,1.49,1.95,2.91,3.07,4.21,1.4,1.64,2.82,2.57,4.47,2.94,1.56.35,3.16.37,4.72.37h.57s.34,0,.34,0c.78,0,1.58,0,2.38-.08,1.21-.12,2.02-.89,2.13-2,.09-.91-.31-1.71-.66-2.42-.35-.71-.79-1.42-1.33-2.16Zm-3.1,3.58h-.2c-1.24,0-2.53,0-3.72-.21-1.14-.19-2.04-.7-2.92-1.64-.75-.81-1.49-1.76-2.32-2.97l-.09-.13c-.78-1.14-1.59-2.32-1.88-3.56-.19-.82-.03-1.81.78-2.16.17-.08.33-.18.45-.3.01.16.06.32.13.46.23.49.75.84,1.32.89.5.04.98-.16,1.3-.54.2.1.56.4,1.22,1.14l3.74,4c1.46,1.54,2.97,3.13,3.89,4.99-.57.02-1.14.02-1.7.02Z"/></g></g></svg>