<?xml version="1.0" encoding="UTF-8"?><svg id="Calque_2" xmlns="http://www.w3.org/2000/svg" viewBox="0 0 34.78 33.79"><defs><style>.cls-1{fill:#8fe658;}</style></defs><g id="Calque_1-2"><g><path class="cls-1" d="m18.18,33.79c-6.88,0-15.58-3.13-17.74-11.99C-1.21,15,1.9,6.91,7.69,2.97,10.06,1.35,12.83.34,15.68.05c3.39-.34,7.5.97,10.35,2.12,5.56,2.25,8.75,7.77,8.75,15.13,0,9.33-7.07,16.41-16.44,16.48-.06,0-.11,0-.17,0Zm-1.36-31.29c-.3,0-.6.01-.89.04-2.44.25-4.8,1.11-6.84,2.49C4.13,8.42,1.45,15.37,2.87,21.21c1.83,7.51,9.45,10.14,15.46,10.08,8.09-.06,13.96-5.94,13.96-13.98,0-2.98-.7-10.19-7.18-12.82-1.92-.78-5.39-2-8.28-2Z"/><path class="cls-1" d="m13.26,26.05c-.55,0-1.11-.15-1.61-.45-.83-.5-1.34-1.29-1.36-2.1-.34-4.39-.27-6.65-.14-10.39l.06-1.97c.02-.61.08-2.46,1.59-3.17,1.11-.52,2.24-.03,2.79.21,3.21,1.38,6.4,2.9,9.5,4.52,2.35,1.23,3.43,2.7,3.23,4.4-.23,1.82-1.96,2.82-2.79,3.3-1.89,1.09-3.57,1.97-5.2,2.82-1.43.75-2.9,1.52-4.53,2.43-.48.27-1.01.41-1.54.41Zm-.47-2.72c.05.06.16.15.32.2.16.04.31.03.47-.06,1.67-.94,3.16-1.72,4.6-2.47,1.68-.88,3.27-1.71,5.11-2.77.73-.42,1.49-.92,1.56-1.44.06-.52-.63-1.21-1.9-1.87-3.05-1.59-6.19-3.09-9.34-4.44-.51-.22-.7-.24-.75-.23h0s-.11.19-.14.98l-.06,1.98c-.13,3.78-.2,5.87.14,10.14Z"/></g></g></svg>