<?xml version="1.0" encoding="UTF-8"?><svg id="Calque_2" xmlns="http://www.w3.org/2000/svg" viewBox="0 0 88.26 81.17"><defs><style>.cls-1{fill:#8fe658;}.cls-2{fill:#2c204e;}</style></defs><g id="Calque_1-2"><g><path class="cls-1" d="M72.91,16.43v9.85H2.59v-9.86c0-1.39,1.13-2.51,2.51-2.51h5.13v4.12c0,1.85,1.51,3.36,3.36,3.36h4.1c1.85,0,3.36-1.51,3.36-3.36v-4.12h11.28v4.12c0,1.85,1.51,3.36,3.36,3.36h4.1c1.85,0,3.36-1.51,3.36-3.36v-4.12h11.28v4.12c0,1.85,1.51,3.36,3.36,3.36h4.1c1.85,0,3.36-1.51,3.36-3.36v-4.12h5.13c1.39,0,2.51,1.13,2.51,2.51h0s0,.01,0,.01h0M12.81,3.36c0-.42,.36-.77,.78-.77h4.1c.42,0,.78,.35,.78,.77v14.66c0,.42-.35,.78-.78,.78h-4.1c-.42,0-.78-.36-.78-.78V3.36Zm22.11,0c0-.42,.35-.77,.78-.77h4.1c.42,0,.78,.35,.78,.77v14.66c0,.42-.35,.78-.78,.78h-4.1c-.42,0-.78-.36-.78-.78V3.36Zm22.11,0c0-.42,.35-.77,.78-.77h4.1c.42,0,.78,.35,.78,.77v14.66c0,.42-.35,.78-.78,.78h-4.1c-.42,0-.78-.36-.78-.78V3.36Zm31.11,71.31l-12.65-58.42c-.08-2.74-2.33-4.94-5.09-4.94h-5.13V3.36c0-1.85-1.51-3.36-3.36-3.36h-4.1c-1.85,0-3.36,1.51-3.36,3.36v7.95h-11.28V3.36c0-1.85-1.51-3.36-3.36-3.36h-4.1c-1.85,0-3.36,1.51-3.36,3.36v7.95h-11.28V3.36c0-1.85-1.51-3.36-3.36-3.36h-4.1c-1.85,0-3.36,1.51-3.36,3.36v7.95H5.1c-2.81,0-5.1,2.29-5.1,5.1v59.66c0,2.81,2.29,5.1,5.1,5.1h29.64c.71,0,1.29-.58,1.29-1.29s-.58-1.29-1.29-1.29H5.1c-1.39,0-2.51-1.13-2.51-2.51V28.86H72.91v21.64c0,.71,.58,1.29,1.29,1.29s1.29-.58,1.29-1.29V28.5l10.12,46.73c.18,.82-.02,1.67-.55,2.33-.53,.66-1.32,1.03-2.16,1.03h-8.07c.42-.74,.66-1.6,.66-2.51v-19.54c0-.71-.58-1.29-1.29-1.29s-1.29,.58-1.29,1.29v19.54c0,1.38-1.13,2.51-2.51,2.51h-29.64c-.71,0-1.29,.58-1.29,1.29s.58,1.29,1.29,1.29h42.14c1.63,0,3.15-.73,4.17-1.99,1.02-1.27,1.41-2.91,1.07-4.5"/><path class="cls-2" d="M52.81,44.42c-5.35,6.26-7.62,8.9-13,15.19-.45,.52-1.1,.82-1.79,.82h-.06c-.71-.02-1.37-.35-1.8-.92l-4.86-6.32c-.38-.5-.55-1.12-.47-1.74,.08-.62,.4-1.18,.9-1.56,.43-.33,.93-.49,1.43-.49,.71,0,1.4,.31,1.87,.92l2.12,2.76c.24,.31,.6,.49,.99,.5,.39,.01,.76-.16,1.02-.45,10.86-12.69,10.19-11.96,10.6-12.23,1-.64,2.36-.44,3.12,.54,.67,.87,.67,2.11-.07,2.97m-15.06,24.32c-8.39,0-15.22-6.83-15.22-15.22s6.83-15.22,15.22-15.22c3.07,0,5.98,.89,8.49,2.59l-8.01,9.36-1.15-1.5c-1.66-2.16-4.77-2.56-6.93-.9-1.05,.8-1.72,1.97-1.89,3.28-.17,1.31,.18,2.6,.98,3.65l4.86,6.32c.91,1.19,2.29,1.89,3.78,1.93,.04,0,.09,0,.13,0,1.44,0,2.81-.63,3.75-1.73l10.52-12.29c3.04,9.77-4.3,19.74-14.54,19.74m16.48-29.6c-1.85-1.58-4.46-1.52-6.22-.17-2.99-2.11-6.59-3.26-10.26-3.26-9.82,0-17.81,7.99-17.81,17.81s7.99,17.81,17.81,17.81c12.64,0,21.3-12.89,16.47-24.58,.45-.53,.34-.4,.55-.65h0c1.77-2.07,1.53-5.19-.54-6.96"/></g></g></svg>