<?xml version="1.0" encoding="UTF-8"?><svg id="Calque_2" xmlns="http://www.w3.org/2000/svg" viewBox="0 0 29.92 41.45"><defs><style>.cls-1{fill:#8fe658;}</style></defs><g id="Calque_1-2"><path class="cls-1" d="m15.78,41.45c-.34,0-.67-.14-.91-.39C9.11,34.96,2.94,27.68.75,19.93-1.62,11.5,1.67,4.62,9.79,1.04c6.28-2.65,12.09.46,13.81,1.88,5.85,4.85,7.5,10.11,5.53,17.58-1.81,6.87-11.94,19.92-12.37,20.48-.22.29-.56.46-.93.48-.02,0-.04,0-.06,0Zm-.82-38.97c-1.32,0-2.73.24-4.17.85C3.84,6.39,1.13,12.05,3.16,19.25c1.91,6.79,7.28,13.37,12.52,19.02,2.52-3.36,9.65-13.15,11.03-18.41,1.71-6.47.34-10.83-4.71-15.02-1-.83-3.71-2.35-7.04-2.35Zm.64,19.07c-2.51,0-4.97-.31-6.9-1.76-1.99-1.49-3.06-4-2.94-6.88.08-1.81.62-3.26,1.6-4.32.99-1.06,2.45-1.77,4.35-2.1,3-.52,6.02.06,8.28,1.59,2.57,1.74,3.93,4.63,3.46,7.36-.48,2.79-2.88,5.83-6.08,6.09-.1,0-.19,0-.28,0-.5.02-.99.03-1.49.03Zm-1.77-12.74c-.56,0-1.13.05-1.7.15-.93.16-2.19.52-2.94,1.33-.57.61-.88,1.53-.93,2.73-.04.97.07,3.37,1.94,4.78,1.77,1.33,4.43,1.33,7.23,1.21,1.78-.31,3.26-2.25,3.56-3.99.3-1.74-.67-3.69-2.4-4.87-1.29-.87-2.99-1.34-4.76-1.34Z"/></g></svg>