<?xml version="1.0" encoding="utf-8"?>
<!-- Generator: Adobe Illustrator 27.1.1, SVG Export Plug-In . SVG Version: 6.00 Build 0)  -->
<svg version="1.1" id="Layer_1" xmlns="http://www.w3.org/2000/svg" xmlns:xlink="http://www.w3.org/1999/xlink" x="0px" y="0px"
	 viewBox="0 0 264 31.2" style="enable-background:new 0 0 264 31.2;" xml:space="preserve">
<style type="text/css">
	.st0{fill:#FFFFFF;}
	.st1{fill:#8FE658;}
</style>
<path class="st0" d="M256.8,1.7c0.8,0,1.9,0.1,2.2,0.6l0.1,0.2c0,0.1,0.1,0.2,0.2,0.2c0.1,0,0.2,0,0.3,0c0.3-0.2,0.7-0.3,1-0.3l0,0
	c0.1,0,0.2,0,0.3-0.1c0.1-0.1,0.2-0.2,0.2-0.3c-0.1-0.5-0.3-1.1-0.5-1.6c0-0.1-0.1-0.1-0.2-0.2c-0.6-0.2-1.2-0.3-1.9-0.2h-0.1
	c-1.5,0.6-1.7,1-1.8,1.2c-0.1,0.1-0.1,0.2,0,0.3C256.6,1.6,256.7,1.7,256.8,1.7z"/>
<path class="st0" d="M254.2,6c0.1,0,0.2-0.1,0.2-0.2c0.2-0.4,0.7-1.7,1.4-1.8h0.2c0.1,0,0.2-0.1,0.2-0.1c0.1-0.1,0.1-0.2,0.1-0.2
	c-0.1-0.3-0.1-0.7,0-1c0.1-0.1,0.1-0.2,0.1-0.3c0-0.1-0.2-0.2-0.3-0.2c-0.6-0.1-1.2-0.1-1.8,0c-0.1,0-0.2,0.1-0.2,0.1
	c-0.4,0.5-0.6,1-0.8,1.5c0,0,0,0.1,0,0.1c0.1,1.6,0.5,1.9,0.6,2C254,6,254,6,254.2,6L254.2,6z"/>
<path class="st0" d="M260.9,4.6c0-0.1,0-0.2-0.1-0.3c-0.5-0.5-1.1-0.8-1.8-0.9V3.2c0-0.2-0.2-0.3-0.3-0.3c0,0-0.1,0-0.1,0
	c-0.6,0.3-1.2,0.8-1.5,1.4l-0.3-0.1c-0.1,0-0.2,0-0.3,0.1c-0.1,0.1-0.1,0.2-0.1,0.3c0.1,0.7,0.4,1.3,0.8,1.8L257,6.5
	c-0.1,0.1-0.1,0.2,0,0.3c0,0.1,0.1,0.2,0.3,0.2c0.2,0,0.4,0,0.5,0c0.5,0,1-0.1,1.5-0.3l0.2,0.2c0.1,0.1,0.2,0.1,0.3,0.1
	c0.1,0,0.2-0.1,0.3-0.2c0.3-0.6,0.5-1.2,0.4-1.9l0.3-0.1C260.8,4.9,260.9,4.8,260.9,4.6z"/>
<path class="st0" d="M263.7,3.3c0,0,0-0.1-0.1-0.1c-0.4-0.5-1-0.9-1.7-1.2c-0.1,0-0.2,0-0.3,0.1c-0.1,0.1-0.1,0.2-0.1,0.3
	c0.2,0.5,0.4,1.7,0,2.1l-0.2,0.1c-0.1,0.1-0.1,0.1-0.1,0.2c0,0.1,0,0.2,0.1,0.3c0.2,0.2,0.4,0.5,0.6,0.8c0,0.1,0,0.2,0.1,0.3
	c0.1,0,0.1,0,0.2,0c0,0,0.1,0,0.1,0c0.5-0.3,1-0.6,1.4-1c0.1-0.1,0.1-0.1,0.1-0.2C264,4.4,263.9,3.8,263.7,3.3z"/>
<path class="st0" d="M262.5,6.8c-0.1-0.1-0.2-0.1-0.3,0c-0.5,0.3-1.7,1-2.2,0.7l-0.1-0.1c-0.2-0.1-0.4,0-0.5,0.1
	c-0.2,0.3-0.4,0.6-0.7,0.8c-0.1,0-0.2,0.1-0.2,0.2c0,0.1,0,0.3,0.1,0.3c0.4,0.4,0.9,0.7,1.4,1c0.1,0,0.1,0,0.2,0h0.1
	c0.4-0.1,0.8-0.3,1.2-0.6l0.4-0.3l0.1-0.1c0.8-1.3,0.8-1.8,0.7-1.9C262.7,7,262.6,6.9,262.5,6.8z"/>
<path class="st0" d="M256.4,7.3l0-0.2c0.1-0.2,0-0.4-0.2-0.4c0,0,0,0-0.1,0c-0.3,0-0.7-0.1-1-0.3c-0.1-0.1-0.2-0.2-0.3-0.2
	c-0.1,0-0.2,0.1-0.3,0.2c-0.3,0.5-0.5,1-0.6,1.6c0,0.1,0,0.2,0.1,0.3c0.4,0.5,0.8,0.9,1.3,1.2h0.1c0.5,0.1,0.9,0.2,1.4,0.2
	c0.3,0,0.5,0,0.8-0.1c0.1,0,0.2-0.2,0.2-0.3c0-0.1,0-0.2-0.1-0.3C257.2,8.6,256.3,7.8,256.4,7.3z"/>
<g>
	<path class="st1" d="M2.2,24V13.1H0.5C0.2,13.1,0,13,0,12.7v-2.3C0,10.2,0.2,10,0.5,10h1.7V7.8c0-3.4,1.9-4.9,4.9-4.9
		C8,2.9,8.6,3,9.3,3.4c0.2,0.1,0.3,0.3,0.3,0.4v2.7c0,0.2-0.2,0.2-0.4,0.2C8.8,6.6,8.4,6.5,8,6.5c-1.4,0-1.8,0.7-1.8,1.8V10h2.9
		c0.3,0,0.4,0.2,0.4,0.4v2.3c0,0.3-0.2,0.4-0.4,0.4H6.3V24c0,0.3-0.2,0.4-0.4,0.4H2.6C2.4,24.4,2.2,24.2,2.2,24z"/>
	<path class="st1" d="M10.6,17.2c0-4.3,3.2-7.6,7.6-7.6c4.3,0,7.5,3.3,7.5,7.6c0,4.3-3.2,7.6-7.5,7.6C13.8,24.8,10.6,21.5,10.6,17.2
		z M18.2,21c2,0,3.6-1.5,3.6-3.8c0-2.4-1.6-3.8-3.6-3.8c-2.1,0-3.6,1.5-3.6,3.8C14.5,19.6,16.1,21,18.2,21z"/>
	<path class="st1" d="M27.7,17.2c0-4.3,3.2-7.6,7.6-7.6c4.3,0,7.5,3.3,7.5,7.6c0,4.3-3.2,7.6-7.5,7.6C30.9,24.8,27.7,21.5,27.7,17.2
		z M35.3,21c2,0,3.6-1.5,3.6-3.8c0-2.4-1.6-3.8-3.6-3.8c-2.1,0-3.6,1.5-3.6,3.8C31.6,19.6,33.2,21,35.3,21z"/>
	<path class="st1" d="M46.6,20.4v-7.2h-1.8c-0.3,0-0.4-0.2-0.4-0.4v-2.3c0-0.3,0.2-0.4,0.4-0.4h1.8V6.6c0-0.3,0.2-0.4,0.4-0.4h3.2
		c0.3,0,0.4,0.2,0.4,0.4V10H53c0.3,0,0.4,0.2,0.4,0.4v2.3c0,0.3-0.2,0.4-0.4,0.4h-2.3v6.8c0,0.9,0.5,1.3,1.3,1.3c0.3,0,0.6,0,0.9,0
		c0.3,0,0.5,0.1,0.5,0.4v2.1c0,0.7-1.5,0.9-2.4,0.9C48.7,24.6,46.6,23.5,46.6,20.4z"/>
	<path class="st1" d="M59.8,22.4L59.8,24c0,0.3-0.2,0.4-0.4,0.4h-2.9c-0.3,0-0.5-0.2-0.5-0.4V3.8c0-0.3,0.2-0.4,0.4-0.4h3.2
		c0.3,0,0.4,0.2,0.4,0.4v7.9c1-1.3,2.5-2,4.5-2c4,0,6.8,3.3,6.8,7.6c0,4.3-2.8,7.6-6.8,7.6C62.4,24.8,60.8,23.8,59.8,22.4z
		 M63.7,21.1c2.1,0,3.7-1.5,3.7-3.9c0-2.3-1.6-3.9-3.7-3.9c-2.2,0-3.7,1.5-3.7,3.9C60,19.5,61.5,21.1,63.7,21.1z"/>
	<path class="st1" d="M73.4,17.2c0-4.3,2.8-7.6,6.9-7.6c2.2,0,3.7,0.9,4.7,2.4l0.1-1.6c0-0.3,0.2-0.4,0.4-0.4h2.9
		c0.3,0,0.4,0.2,0.4,0.4V24c0,0.3-0.2,0.4-0.5,0.4h-2.9c-0.3,0-0.4-0.2-0.4-0.4L85,22.4c-1,1.5-2.6,2.4-4.7,2.4
		C76.2,24.8,73.4,21.5,73.4,17.2z M81.1,21.1c2.1,0,3.6-1.5,3.6-3.9c0-2.3-1.5-3.9-3.6-3.9c-2.1,0-3.7,1.6-3.7,3.9
		C77.4,19.5,79,21.1,81.1,21.1z"/>
	<path class="st1" d="M93.5,28.8c-0.3-0.2-0.3-0.6-0.2-0.9l0.9-1.6c0.1-0.3,0.4-0.4,0.7-0.2c1.3,0.7,2.6,1.1,3.8,1.1
		c2,0,4.1-0.9,4.1-3.6V22c-0.9,1.3-2.4,2.1-4.5,2.1c-4.1,0-6.8-3-6.8-7.2c0-4.2,2.7-7.2,6.8-7.2c2.1,0,3.6,0.8,4.5,2.1l0.1-1.3
		c0-0.3,0.2-0.4,0.5-0.4h2.9c0.3,0,0.4,0.2,0.4,0.4v13.2c0,5.2-4.1,6.8-7.6,6.8C96.9,30.4,94.9,29.8,93.5,28.8z M99.1,20.5
		c2.1,0,3.5-1.4,3.5-3.6s-1.5-3.6-3.5-3.6c-2.1,0-3.6,1.4-3.6,3.6C95.5,19.1,97,20.5,99.1,20.5z"/>
	<path class="st0" d="M113.8,24.1l-4.5-13.6c-0.1-0.3,0-0.5,0.4-0.5h3.1c0.2,0,0.4,0.1,0.5,0.4l2.9,9.4l3.1-9.4
		c0.1-0.2,0.3-0.4,0.5-0.4h3.1c0.2,0,0.4,0.1,0.5,0.4l3.1,9.4l2.9-9.4c0.1-0.2,0.3-0.4,0.6-0.4h3.1c0.3,0,0.5,0.2,0.4,0.5l-4.5,13.6
		c-0.1,0.2-0.3,0.4-0.5,0.4h-3.3c-0.2,0-0.4-0.1-0.5-0.4l-3.2-9.4l-3.2,9.4c-0.1,0.2-0.3,0.4-0.5,0.4h-3.3
		C114.1,24.4,113.9,24.3,113.8,24.1z"/>
	<path class="st0" d="M134.3,17.2c0-4.3,3.2-7.6,7.6-7.6c4.3,0,7.5,3.3,7.5,7.6c0,4.3-3.2,7.6-7.5,7.6
		C137.5,24.8,134.3,21.5,134.3,17.2z M141.9,21c2,0,3.6-1.5,3.6-3.8c0-2.4-1.6-3.8-3.6-3.8c-2.1,0-3.6,1.5-3.6,3.8
		C138.2,19.6,139.8,21,141.9,21z"/>
	<path class="st0" d="M152.1,24V10.4c0-0.3,0.2-0.4,0.4-0.4h3.1c0.3,0,0.4,0.1,0.4,0.5l0.1,1.9c0.5-1.5,1.4-2.7,3.1-2.7
		c0.7,0,1.1,0.2,1.3,0.4c0.2,0.1,0.3,0.3,0.3,0.6v2.6c0,0.4-0.2,0.4-0.6,0.4c-0.3-0.1-0.6-0.1-1.1-0.1c-2,0-3.1,1.3-3.1,3.4V24
		c0,0.3-0.2,0.4-0.4,0.4h-3.2C152.3,24.4,152.1,24.2,152.1,24z"/>
	<path class="st0" d="M163.5,24V3.8c0-0.3,0.2-0.4,0.4-0.4h3.2c0.3,0,0.4,0.2,0.4,0.4V24c0,0.3-0.2,0.4-0.4,0.4h-3.2
		C163.7,24.4,163.5,24.2,163.5,24z"/>
	<path class="st0" d="M170.4,17.2c0-4.3,2.8-7.6,6.9-7.6c2,0,3.5,0.7,4.4,2V3.8c0-0.3,0.2-0.4,0.4-0.4h3.2c0.3,0,0.4,0.2,0.4,0.4V24
		c0,0.3-0.2,0.4-0.5,0.4h-2.9c-0.3,0-0.4-0.2-0.4-0.4l-0.1-1.6c-1,1.5-2.6,2.4-4.7,2.4C173.2,24.8,170.4,21.5,170.4,17.2z
		 M178.1,21.1c2.1,0,3.6-1.5,3.6-3.9c0-2.3-1.5-3.9-3.6-3.9c-2.1,0-3.7,1.6-3.7,3.9C174.3,19.5,175.9,21.1,178.1,21.1z"/>
	<path class="st0" d="M192.9,24.1l-4.5-13.6c-0.1-0.3,0-0.5,0.4-0.5h3.1c0.2,0,0.4,0.1,0.5,0.4l2.9,9.4l3.1-9.4
		c0.1-0.2,0.3-0.4,0.5-0.4h3.1c0.2,0,0.4,0.1,0.5,0.4l3.1,9.4l2.9-9.4c0.1-0.2,0.3-0.4,0.6-0.4h3.1c0.3,0,0.5,0.2,0.4,0.5L208,24.1
		c-0.1,0.2-0.3,0.4-0.5,0.4h-3.3c-0.2,0-0.4-0.1-0.5-0.4l-3.2-9.4l-3.2,9.4c-0.1,0.2-0.3,0.4-0.5,0.4h-3.3
		C193.2,24.4,193,24.3,192.9,24.1z"/>
	<path class="st0" d="M215,5.2c0-1.2,1-2.2,2.3-2.2c1.3,0,2.2,1,2.2,2.2c0,1.3-0.9,2.3-2.2,2.3C215.9,7.4,215,6.4,215,5.2z
		 M215.2,10.4c0-0.3,0.2-0.4,0.4-0.4h3.2c0.3,0,0.4,0.2,0.4,0.4V24c0,0.3-0.2,0.4-0.4,0.4h-3.2c-0.3,0-0.4-0.2-0.4-0.4V10.4z"/>
	<path class="st0" d="M222.1,17.2c0-4.3,2.8-7.6,6.9-7.6c2,0,3.5,0.7,4.4,2V3.8c0-0.3,0.2-0.4,0.4-0.4h3.2c0.3,0,0.4,0.2,0.4,0.4V24
		c0,0.3-0.2,0.4-0.5,0.4h-2.9c-0.3,0-0.4-0.2-0.4-0.4l-0.1-1.6c-1,1.5-2.6,2.4-4.7,2.4C224.9,24.8,222.1,21.5,222.1,17.2z
		 M229.8,21.1c2.1,0,3.6-1.5,3.6-3.9c0-2.3-1.5-3.9-3.6-3.9c-2.1,0-3.7,1.6-3.7,3.9C226,19.5,227.6,21.1,229.8,21.1z"/>
	<path class="st0" d="M240.2,17.1c0-4.2,3-7.5,7.4-7.5c4.4,0,6.9,3.2,6.9,6.9c0,1.4-0.3,2.2-1.6,2.2h-8.8c0.4,1.8,1.9,2.8,4.3,2.8
		c1.1,0,2.2-0.2,3.4-0.9c0.2-0.1,0.4-0.1,0.5,0.1l1.1,1.5c0.1,0.2,0.1,0.4-0.1,0.6c-1.2,1.2-3.1,1.8-5.1,1.8
		C243.4,24.8,240.2,21.5,240.2,17.1z M250.9,15.9c-0.2-1.9-1.5-2.9-3.3-2.9c-1.8,0-3.2,1-3.5,2.9H250.9z"/>
</g>
</svg>
