<?xml version="1.0" encoding="UTF-8"?><svg id="Calque_2" xmlns="http://www.w3.org/2000/svg" xmlns:xlink="http://www.w3.org/1999/xlink" viewBox="0 0 170 170"><defs><style>.cls-1{fill:none;}.cls-2{clip-path:url(#clippath);}.cls-3{fill:#fff;}.cls-4{fill:#8fe658;}.cls-5{fill:#2c204e;}</style><clipPath id="clippath"><path class="cls-1" d="m85,170c46.94,0,85-38.06,85-85S131.94,0,85,0,0,38.06,0,85s38.06,85,85,85"/></clipPath></defs><g id="Calque_1-2"><path class="cls-3" d="m85,170c46.94,0,85-38.06,85-85S131.94,0,85,0,0,38.06,0,85s38.06,85,85,85"/><g><path class="cls-4" d="m74.31,80.14c-2.96-4.15-8.31-7.2-13.51-6.56-2.42.3-4.75,1.4-5.99,3.6-1.19,2.12-1.11,4.64-.13,6.82,2.05,4.61,7.56,6.59,12.29,5.84,1.98-.31,4.05-1.3,5.11-3.09.62-1.06,1.11-2.87.13-3.85-.02-.02-.04-.03-.06-.05.47.16,1,.14,1.49-.14.81-.48,1.26-1.74.67-2.57Zm-16.4-.8c.04-.09.09-.18.14-.27.03-.05.11-.17.17-.27.24.3.57.53.95.66.79.27,1.69.31,2.54.35-.29.12-.56.28-.79.49-.08-.02-.17-.04-.25-.06-.72-.18-1.44-.39-2.16-.56-.22-.05-.44-.1-.67-.15.02-.07.04-.14.07-.21Zm.72,2.1c-.03-.09-.05-.19-.09-.28-.18-.46.26-.26.13.39-.01-.04-.03-.07-.04-.11Zm1.01,2.83c-.03-.08-.06-.16-.09-.25-.03-.07-.05-.14-.08-.21.27.07.54.14.82.2.84.18,1.76.37,2.55-.08.26-.15.48-.37.65-.63,0,0,0,0,0,0-.31.78-.2,1.55.11,2.28-.38-.09-.77-.19-1.15-.3-.96-.29-1.89-.64-2.82-1.01Zm5.57,1.57c.36-.11.19,0,0,0h0Zm0-.01c.05-.04.06-.03,0,0h0Zm-1.45-3.26s-.03.06-.04.09c.1-.35.18-.63.04-.09Zm1.35,3.27s-.02,0-.03,0c.05-.04.05-.03.03,0Zm2.78-.19c-.15-.38-.33-.74-.54-1.08.06.03.12.05.14.06.36.16.71.32,1.06.49.02,0,.04.02.06.03-.05.05-.11.1-.16.15-.02.02-.03.03-.04.05-.02,0-.03.01-.05.03-.16.09-.31.18-.46.27Zm2.67-3.71c-.33-.16-.67-.32-1.01-.48.14-.24.27-.49.37-.74.42.41.81.85,1.15,1.32.06.09.13.17.2.24-.24-.12-.49-.24-.71-.35Z"/><path class="cls-4" d="m65.03,90.98c-4.42,0-9.26-2.08-11.27-6.58-1.17-2.62-1.1-5.43.18-7.71,1.27-2.27,3.67-3.73,6.74-4.1,5.21-.64,11.02,2.17,14.45,6.98h0c.41.58.55,1.31.39,2.06-.18.82-.69,1.55-1.37,1.95-.14.08-.28.15-.43.21.2,1.14-.17,2.44-.78,3.48-1.09,1.86-3.21,3.16-5.81,3.57-.68.11-1.38.16-2.1.16Zm-2.79-16.49c-.44,0-.88.03-1.32.08-1.4.17-3.95.8-5.24,3.1-.97,1.73-1,3.88-.09,5.92,1.92,4.31,7.1,5.91,11.22,5.26,1.98-.31,3.62-1.29,4.4-2.61.51-.87.77-2.09.31-2.6-.02-.02-.05-.04-.06-.05-.09-.09-.17-.19-.22-.3-.14,0-.28-.04-.42-.11-.15-.08-.3-.15-.45-.22l-.25-.12s0,0,0,0c-.33-.16-.66-.31-.99-.47-.26-.12-.45-.34-.53-.61-.08-.27-.05-.56.1-.81.12-.2.22-.4.31-.61.13-.31.4-.53.73-.6.33-.07.66.04.9.27.51.5.92.98,1.26,1.45.04.05.08.1.12.14.07.08.13.16.17.26.1,0,.19.02.29.05.23.08.45.06.66-.06.2-.12.37-.37.43-.64.02-.11.05-.32-.06-.48h0c-2.3-3.22-6.56-6.23-11.26-6.23Zm2.97,12.34s-.04,0-.06,0c-.02,0-.05,0-.08,0,0,0-.03,0-.04,0-.33-.03-.62-.21-.78-.48-.24.2-.57.28-.88.2l-.17-.04c-.35-.08-.69-.17-1.04-.27-1.03-.32-2.04-.7-2.89-1.04-.27-.11-.48-.32-.57-.59l-.13-.36c-.13-.35-.07-.79.18-1.06.25-.28.61-.44.97-.34l.11.03c.22.06.44.12.67.16.77.17,1.4.28,1.83.03.11-.07.22-.17.31-.31.02-.03.05-.07.08-.1,0-.09.01-.18.04-.27l.04-.15c.29-1.03.93-1.03,1.29-.94.57.15.81.58.69,1.28h0s0,.01,0,.01c-.01.07-.03.14-.04.21h0c-.02.09-.08.22-.12.3-.04.07-.08.13-.13.18,0,.13-.02.26-.07.39-.17.41-.15.85.05,1.38.18-.15.42-.22.65-.23.02,0,.05,0,.07,0,.28-.05.66-.04.98.31.26.29.33.7.17,1.06-.23.54-.79.64-1.1.65-.01,0-.02,0-.03,0Zm.37-.07h0,0Zm-2.79-4.42s0,0,0,0c0,0,0,0,0,0Zm5.11,4.3c-.11,0-.22-.02-.33-.06-.27-.1-.49-.31-.6-.58-.13-.32-.28-.63-.46-.91-.23-.37-.19-.85.09-1.18.29-.33.75-.44,1.15-.27,0,0,.14.06.15.06.37.16.73.33,1.09.51.3.14.53.44.58.77s-.04.67-.29.89l-.09.08c-.09.11-.21.22-.34.28l-.47.27c-.15.09-.32.13-.5.13Zm-9.23-4.09c-.43,0-.82-.28-.95-.7l.26-.12c.05.04.11.07.18.1l.1-.23.22-.1h-.04s-.16.04-.16.04l.03-.08-.62-.13s.06.18.21.32l-.22.07s-.03-.1-.03-.11l-.03-.1c-.18-.45-.12-.79-.02-1.02-.25-.07-.47-.23-.61-.45-.15-.24-.18-.54-.1-.81l.08-.25s.03-.07.04-.1c.05-.11.11-.22.17-.32.02-.04.1-.16.17-.27.18-.26.49-.46.8-.48.32-.02.64.09.84.34.13.16.3.28.5.34.62.21,1.41.25,2.17.3h.11c.46.03.85.38.93.84.08.46-.17.91-.6,1.09-.2.08-.37.19-.51.31-.24.22-.58.31-.9.23l-.28-.06c-.25-.06-.51-.13-.76-.2.04.23.03.47-.02.73-.09.45-.47.77-.93.8-.02,0-.04,0-.05,0Zm.33-1.14l.21.23c.14-.13.22-.28.26-.42l-.46.19Zm-.06-.07h0s.53-.14.53-.14c0,0,0-.02,0-.03l-.54.17Zm-.02-.02l.02.02.54-.17s.01-.05.01-.07l-.57.23Z"/></g><g><path class="cls-5" d="m77.17,130.04s-.01-.01-.02-.02c0,0,0,0-.01,0,0,0,0,0,0,.01,0,0,.02,0,.03.01Z"/><path class="cls-5" d="m143.73,128.78c-.5-1.59-2.13-2.09-3.53-2.58-4.43-1.57-8.89-2.72-13.49-3.31.72-20.13,1.27-40.27,1.65-60.41.12-6.71.23-13.42.32-20.13,0-.43-.11-.79-.31-1.07.28-.41.4-.91.24-1.47-.25-.88-1.36-1.7-2.31-1.31-3.54,1.49-7.23,2.55-10.87,3.76-3.78,1.25-7.45,2.81-11.11,4.36-3.73,1.58-7.43,3.22-11.13,4.86-3.28,1.46-6.64,2.89-9.14,5.57-1.2,1.28-.25,3.01,1.33,3.2,13.23,1.58,26.21,4.47,39.11,7.79-.3,15.02-.69,30.03-1.18,45.04-.1,3.15-.23,6.31-.34,9.46-.27-.02-.53-.04-.79-.05-6.53-.28-13.08-.55-19.62-.2-5.54.3-10.96,1.16-16.35,2.49-2.02.5-4.03,1.03-6,1.7-1.75.59-3.61,1.24-5.08,2.39-1.07.83-1.81,2.07-.99,3.36.49.78,1.36,1.19,2.18,1.54,2.47,1.05,5.15,1.61,7.78,2.1,4.3.81,8.67,1.31,13.04,1.61,11.69.81,23.54.13,35.02-2.23,1.79-.37,3.56-.78,5.33-1.23,1.53-.4,3.29-.67,4.64-1.54,1.26-.81,2.09-2.19,1.62-3.71Zm-53.66-71.66c1.67-.96,3.48-1.72,5.23-2.5,3.62-1.61,7.25-3.22,10.9-4.77,3.43-1.45,6.88-2.88,10.43-4.05,2.77-.91,5.55-1.75,8.28-2.76-.09,7.05-.21,14.09-.35,21.14-11.4-2.9-22.86-5.43-34.5-7.07Zm-12.96,72.89s.02,0,.03,0c-.03-.03-.02-.03.01,0,0,0,.02.01.02.02,0,0,0,0,0,0,.01.02.03.04.05.06,0,0-.03-.02-.07-.07,0,0,0,0,0,0-.15-.08-.02-.04-.04-.02Zm.03,2.07s.02-.02.03-.03c-.01.02-.03.03-.03.03Zm21.65,1.76c-6.53-.37-13.35-1-19.62-3,.73-.31,1.52-.57,2.18-.79,1.76-.59,3.55-1.07,5.35-1.53,5.23-1.31,10.47-2.19,15.86-2.48,6.54-.35,13.08-.08,19.62.2.22.01.44.03.66.04-.08,2.26-.16,4.52-.24,6.78-7.88,1.01-15.87,1.23-23.8.78Zm31.21-1.97c-1.21.23-2.42.45-3.64.64.08-1.96.14-3.92.21-5.88,3.38.44,6.68,1.19,9.96,2.26.79.26,1.58.54,2.37.81-.2.08-.4.16-.56.2-2.75.77-5.53,1.42-8.34,1.96Z"/></g><path class="cls-5" d="m48.17,86.31c-12.96-1.21-23.98,6.78-33.72,14.24-.81.62-1.22,1.61-.67,2.57.45.8,1.76,1.29,2.57.67,9.21-7.06,19.54-14.87,31.82-13.73,2.4.22,2.39-3.53,0-3.75h0Z"/><g class="cls-2"><path class="cls-5" d="m46.57,75.84c-18.17-2.48-35.43,4.89-50.62,14.19-4.34,2.66-8.58,5.47-12.81,8.28-2,1.33-.13,4.58,1.89,3.24,14.21-9.44,28.96-19.19,46.16-21.88,4.73-.74,9.64-.86,14.39-.21,1.01.14,2-.24,2.31-1.31.25-.87-.31-2.17-1.31-2.31h0Z"/></g></g></svg>